<svg xmlns:xlink="http://www.w3.org/1999/xlink" xmlns="http://www.w3.org/2000/svg" id="exportSvg" width="600" height="1051"><defs/><g><g id="header-svg"><text transform="translate(0, 0)"><tspan fill="rgb(51,51,51)" x="0" y="17" style="font-family: BentonSans; font-weight: 700; font-size: 19px;">Minnesota's voter turnout still leads the national pack</tspan></text><text transform="translate(0, 30)"><tspan fill="rgb(51,51,51)" x="0" y="16" style="font-family: BentonSans; font-weight: 400; font-size: 15px;">Many states across the country saw massive boosts in voter turnout compared to ​</tspan><tspan fill="rgb(51,51,51)" x="0" y="36" style="font-family: BentonSans; font-weight: 400; font-size: 15px;">the last presidential election. And while Minnesota's already-high turnout didn't rise ​</tspan><tspan fill="rgb(51,51,51)" x="0" y="56" style="font-family: BentonSans; font-weight: 400; font-size: 15px;">as much, it maintained its best-in-nation status.</tspan></text></g><g id="chart-svg"><line x1="120.546875" x2="588.546875" y1="106.5" y2="106.5" style="fill: none; stroke-width: 1; stroke-dasharray: 1, 1; stroke: rgb(238, 238, 238);"/><line x1="120.546875" x2="588.546875" y1="124.5" y2="124.5" style="fill: none; stroke-width: 1; stroke-dasharray: 1, 1; stroke: rgb(238, 238, 238);"/><line x1="120.546875" x2="588.546875" y1="142.5" y2="142.5" style="fill: none; stroke-width: 1; stroke-dasharray: 1, 1; stroke: rgb(238, 238, 238);"/><line x1="120.546875" x2="588.546875" y1="160.5" y2="160.5" style="fill: none; stroke-width: 1; stroke-dasharray: 1, 1; stroke: rgb(238, 238, 238);"/><line x1="120.546875" x2="588.546875" y1="178.5" y2="178.5" style="fill: none; stroke-width: 1; stroke-dasharray: 1, 1; stroke: rgb(238, 238, 238);"/><line x1="120.546875" x2="588.546875" y1="196.5" y2="196.5" style="fill: none; stroke-width: 1; stroke-dasharray: 1, 1; stroke: rgb(238, 238, 238);"/><line x1="120.546875" x2="588.546875" y1="214.5" y2="214.5" style="fill: none; stroke-width: 1; stroke-dasharray: 1, 1; stroke: rgb(238, 238, 238);"/><line x1="120.546875" x2="588.546875" y1="232.5" y2="232.5" style="fill: none; stroke-width: 1; stroke-dasharray: 1, 1; stroke: rgb(238, 238, 238);"/><line x1="120.546875" x2="588.546875" y1="250.5" y2="250.5" style="fill: none; stroke-width: 1; stroke-dasharray: 1, 1; stroke: rgb(238, 238, 238);"/><line x1="120.546875" x2="588.546875" y1="268.5" y2="268.5" style="fill: none; stroke-width: 1; stroke-dasharray: 1, 1; stroke: rgb(238, 238, 238);"/><line x1="120.546875" x2="588.546875" y1="286.5" y2="286.5" style="fill: none; stroke-width: 1; stroke-dasharray: 1, 1; stroke: rgb(238, 238, 238);"/><line x1="120.546875" x2="588.546875" y1="304.5" y2="304.5" style="fill: none; stroke-width: 1; stroke-dasharray: 1, 1; stroke: rgb(238, 238, 238);"/><line x1="120.546875" x2="588.546875" y1="322.5" y2="322.5" style="fill: none; stroke-width: 1; stroke-dasharray: 1, 1; stroke: rgb(238, 238, 238);"/><line x1="120.546875" x2="588.546875" y1="340.5" y2="340.5" style="fill: none; stroke-width: 1; stroke-dasharray: 1, 1; stroke: rgb(238, 238, 238);"/><line x1="120.546875" x2="588.546875" y1="358.5" y2="358.5" style="fill: none; stroke-width: 1; stroke-dasharray: 1, 1; stroke: rgb(238, 238, 238);"/><line x1="120.546875" x2="588.546875" y1="376.5" y2="376.5" style="fill: none; stroke-width: 1; stroke-dasharray: 1, 1; stroke: rgb(238, 238, 238);"/><line x1="120.546875" x2="588.546875" y1="394.5" y2="394.5" style="fill: none; stroke-width: 1; stroke-dasharray: 1, 1; stroke: rgb(238, 238, 238);"/><line x1="120.546875" x2="588.546875" y1="412.5" y2="412.5" style="fill: none; stroke-width: 1; stroke-dasharray: 1, 1; stroke: rgb(238, 238, 238);"/><line x1="120.546875" x2="588.546875" y1="430.5" y2="430.5" style="fill: none; stroke-width: 1; stroke-dasharray: 1, 1; stroke: rgb(238, 238, 238);"/><line x1="120.546875" x2="588.546875" y1="448.5" y2="448.5" style="fill: none; stroke-width: 1; stroke-dasharray: 1, 1; stroke: rgb(238, 238, 238);"/><line x1="120.546875" x2="588.546875" y1="466.5" y2="466.5" style="fill: none; stroke-width: 1; stroke-dasharray: 1, 1; stroke: rgb(238, 238, 238);"/><line x1="120.546875" x2="588.546875" y1="484.5" y2="484.5" style="fill: none; stroke-width: 1; stroke-dasharray: 1, 1; stroke: rgb(238, 238, 238);"/><line x1="120.546875" x2="588.546875" y1="502.5" y2="502.5" style="fill: none; stroke-width: 1; stroke-dasharray: 1, 1; stroke: rgb(238, 238, 238);"/><line x1="120.546875" x2="588.546875" y1="520.5" y2="520.5" style="fill: none; stroke-width: 1; stroke-dasharray: 1, 1; stroke: rgb(238, 238, 238);"/><line x1="120.546875" x2="588.546875" y1="538.5" y2="538.5" style="fill: none; stroke-width: 1; stroke-dasharray: 1, 1; stroke: rgb(238, 238, 238);"/><line x1="120.546875" x2="588.546875" y1="556.5" y2="556.5" style="fill: none; stroke-width: 1; stroke-dasharray: 1, 1; stroke: rgb(238, 238, 238);"/><line x1="120.546875" x2="588.546875" y1="574.5" y2="574.5" style="fill: none; stroke-width: 1; stroke-dasharray: 1, 1; stroke: rgb(238, 238, 238);"/><line x1="120.546875" x2="588.546875" y1="592.5" y2="592.5" style="fill: none; stroke-width: 1; stroke-dasharray: 1, 1; stroke: rgb(238, 238, 238);"/><line x1="120.546875" x2="588.546875" y1="610.5" y2="610.5" style="fill: none; stroke-width: 1; stroke-dasharray: 1, 1; stroke: rgb(238, 238, 238);"/><line x1="120.546875" x2="588.546875" y1="628.5" y2="628.5" style="fill: none; stroke-width: 1; stroke-dasharray: 1, 1; stroke: rgb(238, 238, 238);"/><line x1="120.546875" x2="588.546875" y1="646.5" y2="646.5" style="fill: none; stroke-width: 1; stroke-dasharray: 1, 1; stroke: rgb(238, 238, 238);"/><line x1="120.546875" x2="588.546875" y1="664.5" y2="664.5" style="fill: none; stroke-width: 1; stroke-dasharray: 1, 1; stroke: rgb(238, 238, 238);"/><line x1="120.546875" x2="588.546875" y1="682.5" y2="682.5" style="fill: none; stroke-width: 1; stroke-dasharray: 1, 1; stroke: rgb(238, 238, 238);"/><line x1="120.546875" x2="588.546875" y1="700.5" y2="700.5" style="fill: none; stroke-width: 1; stroke-dasharray: 1, 1; stroke: rgb(238, 238, 238);"/><line x1="120.546875" x2="588.546875" y1="718.5" y2="718.5" style="fill: none; stroke-width: 1; stroke-dasharray: 1, 1; stroke: rgb(238, 238, 238);"/><line x1="120.546875" x2="588.546875" y1="736.5" y2="736.5" style="fill: none; stroke-width: 1; stroke-dasharray: 1, 1; stroke: rgb(238, 238, 238);"/><line x1="120.546875" x2="588.546875" y1="754.5" y2="754.5" style="fill: none; stroke-width: 1; stroke-dasharray: 1, 1; stroke: rgb(238, 238, 238);"/><line x1="120.546875" x2="588.546875" y1="772.5" y2="772.5" style="fill: none; stroke-width: 1; stroke-dasharray: 1, 1; stroke: rgb(238, 238, 238);"/><line x1="120.546875" x2="588.546875" y1="790.5" y2="790.5" style="fill: none; stroke-width: 1; stroke-dasharray: 1, 1; stroke: rgb(238, 238, 238);"/><line x1="120.546875" x2="588.546875" y1="808.5" y2="808.5" style="fill: none; stroke-width: 1; stroke-dasharray: 1, 1; stroke: rgb(238, 238, 238);"/><line x1="120.546875" x2="588.546875" y1="826.5" y2="826.5" style="fill: none; stroke-width: 1; stroke-dasharray: 1, 1; stroke: rgb(238, 238, 238);"/><line x1="120.546875" x2="588.546875" y1="844.5" y2="844.5" style="fill: none; stroke-width: 1; stroke-dasharray: 1, 1; stroke: rgb(238, 238, 238);"/><line x1="120.546875" x2="588.546875" y1="862.5" y2="862.5" style="fill: none; stroke-width: 1; stroke-dasharray: 1, 1; stroke: rgb(238, 238, 238);"/><line x1="120.546875" x2="588.546875" y1="880.5" y2="880.5" style="fill: none; stroke-width: 1; stroke-dasharray: 1, 1; stroke: rgb(238, 238, 238);"/><line x1="120.546875" x2="588.546875" y1="898.5" y2="898.5" style="fill: none; stroke-width: 1; stroke-dasharray: 1, 1; stroke: rgb(238, 238, 238);"/><line x1="120.546875" x2="588.546875" y1="916.5" y2="916.5" style="fill: none; stroke-width: 1; stroke-dasharray: 1, 1; stroke: rgb(238, 238, 238);"/><line x1="120.546875" x2="588.546875" y1="934.5" y2="934.5" style="fill: none; stroke-width: 1; stroke-dasharray: 1, 1; stroke: rgb(238, 238, 238);"/><line x1="120.546875" x2="588.546875" y1="952.5" y2="952.5" style="fill: none; stroke-width: 1; stroke-dasharray: 1, 1; stroke: rgb(238, 238, 238);"/><line x1="120.546875" x2="588.546875" y1="970.5" y2="970.5" style="fill: none; stroke-width: 1; stroke-dasharray: 1, 1; stroke: rgb(238, 238, 238);"/><line x1="120.546875" x2="588.546875" y1="988.5" y2="988.5" style="fill: none; stroke-width: 1; stroke-dasharray: 1, 1; stroke: rgb(238, 238, 238);"/><line x1="120.546875" x2="588.546875" y1="1006.5" y2="1006.5" style="fill: none; stroke-width: 1; stroke-dasharray: 1, 1; stroke: rgb(238, 238, 238);"/><line x1="120.546875" x2="588.546875" y1="1024.5" y2="1024.5" style="fill: none; stroke-width: 1; stroke-dasharray: 1, 1; stroke: rgb(238, 238, 238);"/><rect width="0.5" height="932" transform="translate(127.28125, 100)" fill="none" style="fill: none;"/><path d="M 126.78125 100 v 932" style="fill: none; stroke-width: 1; stroke: rgb(173, 173, 173);"/><text transform="translate(127.78125, 1036)" style="text-anchor: middle;"><tspan fill="rgb(133,133,133)" x="0" y="12" style="font-family: BentonSans; font-weight: 400; font-size: 12px;">0.0%</tspan></text><rect width="0.5" height="932" transform="translate(241.265625, 100)" fill="none" style="fill: none;"/><path d="M 240.765625 100 v 932" style="fill: none; stroke-width: 1; stroke: rgb(238, 238, 238);"/><text transform="translate(241.765625, 1036)" style="text-anchor: middle;"><tspan fill="rgb(133,133,133)" x="0" y="12" style="font-family: BentonSans; font-weight: 400; font-size: 12px;">25.0%</tspan></text><rect width="0.5" height="932" transform="translate(355.265625, 100)" fill="none" style="fill: none;"/><path d="M 354.765625 100 v 932" style="fill: none; stroke-width: 1; stroke: rgb(238, 238, 238);"/><text transform="translate(355.765625, 1036)" style="text-anchor: middle;"><tspan fill="rgb(133,133,133)" x="0" y="12" style="font-family: BentonSans; font-weight: 400; font-size: 12px;">50.0%</tspan></text><rect width="0.5" height="932" transform="translate(469.25, 100)" fill="none" style="fill: none;"/><path d="M 468.75 100 v 932" style="fill: none; stroke-width: 1; stroke: rgb(238, 238, 238);"/><text transform="translate(469.75, 1036)" style="text-anchor: middle;"><tspan fill="rgb(133,133,133)" x="0" y="12" style="font-family: BentonSans; font-weight: 400; font-size: 12px;">75.0%</tspan></text><rect width="0.5" height="932" transform="translate(583.234375, 100)" fill="none" style="fill: none;"/><path d="M 582.734375 100 v 932" style="fill: none; stroke-width: 1; stroke: rgb(238, 238, 238);"/><text transform="translate(583.734375, 1036)" style="text-anchor: end;"><tspan fill="rgb(133,133,133)" x="0" y="12" style="font-family: BentonSans; font-weight: 400; font-size: 12px;">100.0%</tspan></text><text transform="translate(1, 100)"><tspan fill="rgb(51,51,51)" x="0" y="12" style="font-family: BentonSans; font-weight: 400; font-size: 12px;">Minnesota</tspan></text><rect width="23.265625" height="2" transform="translate(467.828125, 106)" fill="rgb(125,115,156)" style="fill: rgb(125, 115, 156);"/><path d="M487.4368896484375 102.84314727783203 L 491.4368896484375 106.84314727783203 L 487.4368896484375 110.84314727783203" stroke="rgb(125,115,156)" style="fill: none; stroke-width: 2; stroke: rgb(125, 115, 156);"/><text transform="translate(496.078125, 100)"><tspan fill="rgb(125,115,156)" x="0" y="12" style="font-family: BentonSans; font-weight: 400; font-size: 12px;">79.9%</tspan></text><text transform="translate(1, 118)"><tspan fill="rgb(51,51,51)" x="0" y="12" style="font-family: BentonSans; font-weight: 400; font-size: 12px;">Maine</tspan></text><rect width="29.1875" height="2" transform="translate(458.71875, 124)" fill="rgb(125,115,156)" style="fill: rgb(125, 115, 156);"/><path d="M484.2493896484375 120.84314727783203 L 488.2493896484375 124.84314727783203 L 484.2493896484375 128.84314727783203" stroke="rgb(125,115,156)" style="fill: none; stroke-width: 2; stroke: rgb(125, 115, 156);"/><text transform="translate(492.890625, 118)"><tspan fill="rgb(125,115,156)" x="0" y="12" style="font-family: BentonSans; font-weight: 400; font-size: 12px;">79.2%</tspan></text><text transform="translate(1, 136)"><tspan fill="rgb(51,51,51)" x="0" y="12" style="font-family: BentonSans; font-weight: 400; font-size: 12px;">Iowa</tspan></text><rect width="43.78125" height="2" transform="translate(441.390625, 142)" fill="rgb(125,115,156)" style="fill: rgb(125, 115, 156);"/><path d="M481.5150146484375 138.8431396484375 L 485.5150146484375 142.8431396484375 L 481.5150146484375 146.8431396484375" stroke="rgb(125,115,156)" style="fill: none; stroke-width: 2; stroke: rgb(125, 115, 156);"/><text transform="translate(490.15625, 136)"><tspan fill="rgb(125,115,156)" x="0" y="12" style="font-family: BentonSans; font-weight: 400; font-size: 12px;">78.6%</tspan></text><text transform="translate(1, 154)"><tspan fill="rgb(51,51,51)" x="0" y="12" style="font-family: BentonSans; font-weight: 400; font-size: 12px;">Colorado</tspan></text><rect width="19.625" height="2" transform="translate(455.515625, 160)" fill="rgb(125,115,156)" style="fill: rgb(125, 115, 156);"/><path d="M471.4837646484375 156.8431396484375 L 475.4837646484375 160.8431396484375 L 471.4837646484375 164.8431396484375" stroke="rgb(125,115,156)" style="fill: none; stroke-width: 2; stroke: rgb(125, 115, 156);"/><text transform="translate(480.125, 154)"><tspan fill="rgb(125,115,156)" x="0" y="12" style="font-family: BentonSans; font-weight: 400; font-size: 12px;">76.4%</tspan></text><text transform="translate(1, 172)"><tspan fill="rgb(51,51,51)" x="0" y="12" style="font-family: BentonSans; font-weight: 400; font-size: 12px;">Wisconsin</tspan></text><rect width="25.546875" height="2" transform="translate(448.234375, 178)" fill="rgb(125,115,156)" style="fill: rgb(125, 115, 156);"/><path d="M470.1243896484375 174.8431396484375 L 474.1243896484375 178.8431396484375 L 470.1243896484375 182.8431396484375" stroke="rgb(125,115,156)" style="fill: none; stroke-width: 2; stroke: rgb(125, 115, 156);"/><text transform="translate(478.765625, 172)"><tspan fill="rgb(125,115,156)" x="0" y="12" style="font-family: BentonSans; font-weight: 400; font-size: 12px;">76.1%</tspan></text><text transform="translate(1, 190)"><tspan fill="rgb(51,51,51)" x="0" y="12" style="font-family: BentonSans; font-weight: 400; font-size: 12px;">Washington</tspan></text><rect width="44.234375" height="2" transform="translate(426.34375, 196)" fill="rgb(125,115,156)" style="fill: rgb(125, 115, 156);"/><path d="M466.9212646484375 192.8431396484375 L 470.9212646484375 196.8431396484375 L 466.9212646484375 200.8431396484375" stroke="rgb(125,115,156)" style="fill: none; stroke-width: 2; stroke: rgb(125, 115, 156);"/><text transform="translate(475.5625, 190)"><tspan fill="rgb(125,115,156)" x="0" y="12" style="font-family: BentonSans; font-weight: 400; font-size: 12px;">75.4%</tspan></text><text transform="translate(1, 208)"><tspan fill="rgb(51,51,51)" x="0" y="12" style="font-family: BentonSans; font-weight: 400; font-size: 12px;">New Hampshire</tspan></text><rect width="13.234375" height="2" transform="translate(457.34375, 214)" fill="rgb(125,115,156)" style="fill: rgb(125, 115, 156);"/><path d="M466.9212646484375 210.8431396484375 L 470.9212646484375 214.8431396484375 L 466.9212646484375 218.8431396484375" stroke="rgb(125,115,156)" style="fill: none; stroke-width: 2; stroke: rgb(125, 115, 156);"/><text transform="translate(475.5625, 208)"><tspan fill="rgb(125,115,156)" x="0" y="12" style="font-family: BentonSans; font-weight: 400; font-size: 12px;">75.4%</tspan></text><text transform="translate(1, 226)"><tspan fill="rgb(51,51,51)" x="0" y="12" style="font-family: BentonSans; font-weight: 400; font-size: 12px;">Oregon</tspan></text><rect width="31.46875" height="2" transform="translate(438.203125, 232)" fill="rgb(125,115,156)" style="fill: rgb(125, 115, 156);"/><path d="M466.0150146484375 228.8431396484375 L 470.0150146484375 232.8431396484375 L 466.0150146484375 236.8431396484375" stroke="rgb(125,115,156)" style="fill: none; stroke-width: 2; stroke: rgb(125, 115, 156);"/><text transform="translate(474.65625, 226)"><tspan fill="rgb(125,115,156)" x="0" y="12" style="font-family: BentonSans; font-weight: 400; font-size: 12px;">75.2%</tspan></text><text transform="translate(1, 244)"><tspan fill="rgb(51,51,51)" x="0" y="12" style="font-family: BentonSans; font-weight: 400; font-size: 12px;">Vermont</tspan></text><rect width="41.96875" height="2" transform="translate(422.234375, 250)" fill="rgb(125,115,156)" style="fill: rgb(125, 115, 156);"/><path d="M460.5462646484375 246.8431396484375 L 464.5462646484375 250.8431396484375 L 460.5462646484375 254.8431396484375" stroke="rgb(125,115,156)" style="fill: none; stroke-width: 2; stroke: rgb(125, 115, 156);"/><text transform="translate(469.1875, 244)"><tspan fill="rgb(125,115,156)" x="0" y="12" style="font-family: BentonSans; font-weight: 400; font-size: 12px;">74.0%</tspan></text><text transform="translate(1, 262)"><tspan fill="rgb(51,51,51)" x="0" y="12" style="font-family: BentonSans; font-weight: 400; font-size: 12px;">Michigan</tspan></text><rect width="36.03125" height="2" transform="translate(426.34375, 268)" fill="rgb(125,115,156)" style="fill: rgb(125, 115, 156);"/><path d="M458.7181396484375 264.8431396484375 L 462.7181396484375 268.8431396484375 L 458.7181396484375 272.8431396484375" stroke="rgb(125,115,156)" style="fill: none; stroke-width: 2; stroke: rgb(125, 115, 156);"/><text transform="translate(467.359375, 262)"><tspan fill="rgb(125,115,156)" x="0" y="12" style="font-family: BentonSans; font-weight: 400; font-size: 12px;">73.6%</tspan></text><text transform="translate(1, 280)"><tspan fill="rgb(51,51,51)" x="0" y="12" style="font-family: BentonSans; font-weight: 400; font-size: 12px;">Massachusetts</tspan></text><rect width="23.265625" height="2" transform="translate(438.203125, 286)" fill="rgb(125,115,156)" style="fill: rgb(125, 115, 156);"/><path d="M457.8118896484375 282.8431396484375 L 461.8118896484375 286.8431396484375 L 457.8118896484375 290.8431396484375" stroke="rgb(125,115,156)" style="fill: none; stroke-width: 2; stroke: rgb(125, 115, 156);"/><text transform="translate(466.453125, 280)"><tspan fill="rgb(125,115,156)" x="0" y="12" style="font-family: BentonSans; font-weight: 400; font-size: 12px;">73.4%</tspan></text><text transform="translate(1, 298)"><tspan fill="rgb(51,51,51)" x="0" y="12" style="font-family: BentonSans; font-weight: 400; font-size: 12px;">New Jersey</tspan></text><rect width="34.21875" height="2" transform="translate(425.421875, 304)" fill="rgb(125,115,156)" style="fill: rgb(125, 115, 156);"/><path d="M455.9837646484375 300.8431396484375 L 459.9837646484375 304.8431396484375 L 455.9837646484375 308.8431396484375" stroke="rgb(125,115,156)" style="fill: none; stroke-width: 2; stroke: rgb(125, 115, 156);"/><text transform="translate(464.625, 298)"><tspan fill="rgb(125,115,156)" x="0" y="12" style="font-family: BentonSans; font-weight: 400; font-size: 12px;">73.0%</tspan></text><text transform="translate(1, 316)"><tspan fill="rgb(51,51,51)" x="0" y="12" style="font-family: BentonSans; font-weight: 400; font-size: 12px;">Montana</tspan></text><rect width="38.3125" height="2" transform="translate(419.953125, 322)" fill="rgb(125,115,156)" style="fill: rgb(125, 115, 156);"/><path d="M454.6087646484375 318.8431396484375 L 458.6087646484375 322.8431396484375 L 454.6087646484375 326.8431396484375" stroke="rgb(125,115,156)" style="fill: none; stroke-width: 2; stroke: rgb(125, 115, 156);"/><text transform="translate(463.25, 316)"><tspan fill="rgb(125,115,156)" x="0" y="12" style="font-family: BentonSans; font-weight: 400; font-size: 12px;">72.7%</tspan></text><text transform="translate(1, 334)"><tspan fill="rgb(51,51,51)" x="0" y="12" style="font-family: BentonSans; font-weight: 400; font-size: 12px;">North Carolina</tspan></text><rect width="29.65625" height="2" transform="translate(426.34375, 340)" fill="rgb(125,115,156)" style="fill: rgb(125, 115, 156);"/><path d="M452.3431396484375 336.8431396484375 L 456.3431396484375 340.8431396484375 L 452.3431396484375 344.8431396484375" stroke="rgb(125,115,156)" style="fill: none; stroke-width: 2; stroke: rgb(125, 115, 156);"/><text transform="translate(460.984375, 334)"><tspan fill="rgb(125,115,156)" x="0" y="12" style="font-family: BentonSans; font-weight: 400; font-size: 12px;">72.2%</tspan></text><text transform="translate(1, 352)"><tspan fill="rgb(51,51,51)" x="0" y="12" style="font-family: BentonSans; font-weight: 400; font-size: 12px;">Florida</tspan></text><rect width="27.375" height="2" transform="translate(426.34375, 358)" fill="rgb(125,115,156)" style="fill: rgb(125, 115, 156);"/><path d="M450.0618896484375 354.8431396484375 L 454.0618896484375 358.8431396484375 L 450.0618896484375 362.8431396484375" stroke="rgb(125,115,156)" style="fill: none; stroke-width: 2; stroke: rgb(125, 115, 156);"/><text transform="translate(458.703125, 352)"><tspan fill="rgb(125,115,156)" x="0" y="12" style="font-family: BentonSans; font-weight: 400; font-size: 12px;">71.7%</tspan></text><text transform="translate(1, 370)"><tspan fill="rgb(51,51,51)" x="0" y="12" style="font-family: BentonSans; font-weight: 400; font-size: 12px;">Virginia</tspan></text><rect width="19.15625" height="2" transform="translate(433.1875, 376)" fill="rgb(125,115,156)" style="fill: rgb(125, 115, 156);"/><path d="M448.6868896484375 372.8431396484375 L 452.6868896484375 376.8431396484375 L 448.6868896484375 380.8431396484375" stroke="rgb(125,115,156)" style="fill: none; stroke-width: 2; stroke: rgb(125, 115, 156);"/><text transform="translate(457.328125, 370)"><tspan fill="rgb(125,115,156)" x="0" y="12" style="font-family: BentonSans; font-weight: 400; font-size: 12px;">71.4%</tspan></text><text transform="translate(1, 388)"><tspan fill="rgb(51,51,51)" x="0" y="12" style="font-family: BentonSans; font-weight: 400; font-size: 12px;">Connecticut</tspan></text><rect width="26.015625" height="2" transform="translate(424.96875, 394)" fill="rgb(125,115,156)" style="fill: rgb(125, 115, 156);"/><path d="M447.3275146484375 390.8431396484375 L 451.3275146484375 394.8431396484375 L 447.3275146484375 398.8431396484375" stroke="rgb(125,115,156)" style="fill: none; stroke-width: 2; stroke: rgb(125, 115, 156);"/><text transform="translate(455.96875, 388)"><tspan fill="rgb(125,115,156)" x="0" y="12" style="font-family: BentonSans; font-weight: 400; font-size: 12px;">71.1%</tspan></text><text transform="translate(1, 406)"><tspan fill="rgb(51,51,51)" x="0" y="12" style="font-family: BentonSans; font-weight: 400; font-size: 12px;">Maryland</tspan></text><rect width="15.96875" height="2" transform="translate(433.1875, 412)" fill="rgb(125,115,156)" style="fill: rgb(125, 115, 156);"/><path d="M445.4993896484375 408.8431396484375 L 449.4993896484375 412.8431396484375 L 445.4993896484375 416.8431396484375" stroke="rgb(125,115,156)" style="fill: none; stroke-width: 2; stroke: rgb(125, 115, 156);"/><text transform="translate(454.140625, 406)"><tspan fill="rgb(125,115,156)" x="0" y="12" style="font-family: BentonSans; font-weight: 400; font-size: 12px;">70.7%</tspan></text><text transform="translate(1, 424)"><tspan fill="rgb(51,51,51)" x="0" y="12" style="font-family: BentonSans; font-weight: 400; font-size: 12px;">Pennsylvania</tspan></text><rect width="29.65625" height="2" transform="translate(418.59375, 430)" fill="rgb(125,115,156)" style="fill: rgb(125, 115, 156);"/><path d="M444.5931396484375 426.8431396484375 L 448.5931396484375 430.8431396484375 L 444.5931396484375 434.8431396484375" stroke="rgb(125,115,156)" style="fill: none; stroke-width: 2; stroke: rgb(125, 115, 156);"/><text transform="translate(453.234375, 424)"><tspan fill="rgb(125,115,156)" x="0" y="12" style="font-family: BentonSans; font-weight: 400; font-size: 12px;">70.5%</tspan></text><text transform="translate(1, 442)"><tspan fill="rgb(51,51,51)" x="0" y="12" style="font-family: BentonSans; font-weight: 400; font-size: 12px;">Delaware</tspan></text><rect width="26.921875" height="2" transform="translate(421.328125, 448)" fill="rgb(125,115,156)" style="fill: rgb(125, 115, 156);"/><path d="M444.5931396484375 444.8431396484375 L 448.5931396484375 448.8431396484375 L 444.5931396484375 452.8431396484375" stroke="rgb(125,115,156)" style="fill: none; stroke-width: 2; stroke: rgb(125, 115, 156);"/><text transform="translate(453.234375, 442)"><tspan fill="rgb(125,115,156)" x="0" y="12" style="font-family: BentonSans; font-weight: 400; font-size: 12px;">70.5%</tspan></text><text transform="translate(1, 460)"><tspan fill="rgb(51,51,51)" x="0" y="12" style="font-family: BentonSans; font-weight: 400; font-size: 12px;">Alaska</tspan></text><rect width="36.484375" height="2" transform="translate(408.5625, 466)" fill="rgb(125,115,156)" style="fill: rgb(125, 115, 156);"/><path d="M441.3900146484375 462.8431396484375 L 445.3900146484375 466.8431396484375 L 441.3900146484375 470.8431396484375" stroke="rgb(125,115,156)" style="fill: none; stroke-width: 2; stroke: rgb(125, 115, 156);"/><text transform="translate(450.03125, 460)"><tspan fill="rgb(125,115,156)" x="0" y="12" style="font-family: BentonSans; font-weight: 400; font-size: 12px;">69.8%</tspan></text><text transform="translate(1, 478)"><tspan fill="rgb(51,51,51)" x="0" y="12" style="font-family: BentonSans; font-weight: 400; font-size: 12px;">Ohio</tspan></text><rect width="21.453125" height="2" transform="translate(419.5, 484)" fill="rgb(125,115,156)" style="fill: rgb(125, 115, 156);"/><path d="M437.2962646484375 480.8431396484375 L 441.2962646484375 484.8431396484375 L 437.2962646484375 488.8431396484375" stroke="rgb(125,115,156)" style="fill: none; stroke-width: 2; stroke: rgb(125, 115, 156);"/><text transform="translate(445.9375, 478)"><tspan fill="rgb(125,115,156)" x="0" y="12" style="font-family: BentonSans; font-weight: 400; font-size: 12px;">68.9%</tspan></text><text transform="translate(1, 496)"><tspan fill="rgb(51,51,51)" x="0" y="12" style="font-family: BentonSans; font-weight: 400; font-size: 12px;">Nebraska</tspan></text><rect width="21.90625" height="2" transform="translate(417.671875, 502)" fill="rgb(125,115,156)" style="fill: rgb(125, 115, 156);"/><path d="M435.9212646484375 498.8431396484375 L 439.9212646484375 502.8431396484375 L 435.9212646484375 506.8431396484375" stroke="rgb(125,115,156)" style="fill: none; stroke-width: 2; stroke: rgb(125, 115, 156);"/><text transform="translate(444.5625, 496)"><tspan fill="rgb(125,115,156)" x="0" y="12" style="font-family: BentonSans; font-weight: 400; font-size: 12px;">68.6%</tspan></text><text transform="translate(1, 514)"><tspan fill="rgb(51,51,51)" x="0" y="12" style="font-family: BentonSans; font-weight: 400; font-size: 12px;">Georgia</tspan></text><rect width="37.40625" height="2" transform="translate(399.890625, 520)" fill="rgb(125,115,156)" style="fill: rgb(125, 115, 156);"/><path d="M433.6400146484375 516.8431396484375 L 437.6400146484375 520.8431396484375 L 433.6400146484375 524.8431396484375" stroke="rgb(125,115,156)" style="fill: none; stroke-width: 2; stroke: rgb(125, 115, 156);"/><text transform="translate(442.28125, 514)"><tspan fill="rgb(125,115,156)" x="0" y="12" style="font-family: BentonSans; font-weight: 400; font-size: 12px;">68.1%</tspan></text><text transform="translate(1, 532)"><tspan fill="rgb(51,51,51)" x="0" y="12" style="font-family: BentonSans; font-weight: 400; font-size: 12px;">Idaho</tspan></text><rect width="31.015625" height="2" transform="translate(404.453125, 538)" fill="rgb(125,115,156)" style="fill: rgb(125, 115, 156);"/><path d="M431.8118896484375 534.8431396484375 L 435.8118896484375 538.8431396484375 L 431.8118896484375 542.8431396484375" stroke="rgb(125,115,156)" style="fill: none; stroke-width: 2; stroke: rgb(125, 115, 156);"/><text transform="translate(440.453125, 532)"><tspan fill="rgb(125,115,156)" x="0" y="12" style="font-family: BentonSans; font-weight: 400; font-size: 12px;">67.7%</tspan></text><text transform="translate(1, 550)"><tspan fill="rgb(51,51,51)" x="0" y="12" style="font-family: BentonSans; font-weight: 400; font-size: 12px;">Illinois</tspan></text><rect width="19.15625" height="2" transform="translate(415.859375, 556)" fill="rgb(125,115,156)" style="fill: rgb(125, 115, 156);"/><path d="M431.3587646484375 552.8431396484375 L 435.3587646484375 556.8431396484375 L 431.3587646484375 560.8431396484375" stroke="rgb(125,115,156)" style="fill: none; stroke-width: 2; stroke: rgb(125, 115, 156);"/><text transform="translate(440, 550)"><tspan fill="rgb(125,115,156)" x="0" y="12" style="font-family: BentonSans; font-weight: 400; font-size: 12px;">67.6%</tspan></text><text transform="translate(1, 568)"><tspan fill="rgb(51,51,51)" x="0" y="12" style="font-family: BentonSans; font-weight: 400; font-size: 12px;">United States</tspan></text><rect width="28.28125" height="2" transform="translate(401.265625, 574)" fill="rgb(125,115,156)" style="fill: rgb(125, 115, 156);"/><path d="M425.8900146484375 570.8431396484375 L 429.8900146484375 574.8431396484375 L 425.8900146484375 578.8431396484375" stroke="rgb(125,115,156)" style="fill: none; stroke-width: 2; stroke: rgb(125, 115, 156);"/><text transform="translate(434.53125, 568)"><tspan fill="rgb(125,115,156)" x="0" y="12" style="font-family: BentonSans; font-weight: 400; font-size: 12px;">66.4%</tspan></text><text transform="translate(1, 586)"><tspan fill="rgb(51,51,51)" x="0" y="12" style="font-family: BentonSans; font-weight: 400; font-size: 12px;">Missouri</tspan></text><rect width="18.25" height="2" transform="translate(410.84375, 592)" fill="rgb(125,115,156)" style="fill: rgb(125, 115, 156);"/><path d="M425.4368896484375 588.8431396484375 L 429.4368896484375 592.8431396484375 L 425.4368896484375 596.8431396484375" stroke="rgb(125,115,156)" style="fill: none; stroke-width: 2; stroke: rgb(125, 115, 156);"/><text transform="translate(434.078125, 586)"><tspan fill="rgb(125,115,156)" x="0" y="12" style="font-family: BentonSans; font-weight: 400; font-size: 12px;">66.3%</tspan></text><text transform="translate(1, 604)"><tspan fill="rgb(51,51,51)" x="0" y="12" style="font-family: BentonSans; font-weight: 400; font-size: 12px;">Utah</tspan></text><rect width="38.78125" height="2" transform="translate(389.859375, 610)" fill="rgb(125,115,156)" style="fill: rgb(125, 115, 156);"/><path d="M424.9837646484375 606.8431396484375 L 428.9837646484375 610.8431396484375 L 424.9837646484375 614.8431396484375" stroke="rgb(125,115,156)" style="fill: none; stroke-width: 2; stroke: rgb(125, 115, 156);"/><text transform="translate(433.625, 604)"><tspan fill="rgb(125,115,156)" x="0" y="12" style="font-family: BentonSans; font-weight: 400; font-size: 12px;">66.2%</tspan></text><text transform="translate(1, 622)"><tspan fill="rgb(51,51,51)" x="0" y="12" style="font-family: BentonSans; font-weight: 400; font-size: 12px;">South Dakota</tspan></text><rect width="33.75" height="2" transform="translate(393.96875, 628)" fill="rgb(125,115,156)" style="fill: rgb(125, 115, 156);"/><path d="M424.0618896484375 624.8431396484375 L 428.0618896484375 628.8431396484375 L 424.0618896484375 632.8431396484375" stroke="rgb(125,115,156)" style="fill: none; stroke-width: 2; stroke: rgb(125, 115, 156);"/><text transform="translate(432.703125, 622)"><tspan fill="rgb(125,115,156)" x="0" y="12" style="font-family: BentonSans; font-weight: 400; font-size: 12px;">66.0%</tspan></text><text transform="translate(1, 640)"><tspan fill="rgb(51,51,51)" x="0" y="12" style="font-family: BentonSans; font-weight: 400; font-size: 12px;">Arizona</tspan></text><rect width="42.40625" height="2" transform="translate(383.03125, 646)" fill="rgb(125,115,156)" style="fill: rgb(125, 115, 156);"/><path d="M421.7806396484375 642.8431396484375 L 425.7806396484375 646.8431396484375 L 421.7806396484375 650.8431396484375" stroke="rgb(125,115,156)" style="fill: none; stroke-width: 2; stroke: rgb(125, 115, 156);"/><text transform="translate(430.421875, 640)"><tspan fill="rgb(125,115,156)" x="0" y="12" style="font-family: BentonSans; font-weight: 400; font-size: 12px;">65.5%</tspan></text><text transform="translate(1, 658)"><tspan fill="rgb(51,51,51)" x="0" y="12" style="font-family: BentonSans; font-weight: 400; font-size: 12px;">New York</tspan></text><rect width="36.484375" height="2" transform="translate(388.046875, 664)" fill="rgb(125,115,156)" style="fill: rgb(125, 115, 156);"/><path d="M420.8743896484375 660.8431396484375 L 424.8743896484375 664.8431396484375 L 420.8743896484375 668.8431396484375" stroke="rgb(125,115,156)" style="fill: none; stroke-width: 2; stroke: rgb(125, 115, 156);"/><text transform="translate(429.515625, 658)"><tspan fill="rgb(125,115,156)" x="0" y="12" style="font-family: BentonSans; font-weight: 400; font-size: 12px;">65.3%</tspan></text><text transform="translate(1, 676)"><tspan fill="rgb(51,51,51)" x="0" y="12" style="font-family: BentonSans; font-weight: 400; font-size: 12px;">Rhode Island</tspan></text><rect width="24.1875" height="2" transform="translate(398.984375, 682)" fill="rgb(125,115,156)" style="fill: rgb(125, 115, 156);"/><path d="M419.5150146484375 678.8431396484375 L 423.5150146484375 682.8431396484375 L 419.5150146484375 686.8431396484375" stroke="rgb(125,115,156)" style="fill: none; stroke-width: 2; stroke: rgb(125, 115, 156);"/><text transform="translate(428.15625, 676)"><tspan fill="rgb(125,115,156)" x="0" y="12" style="font-family: BentonSans; font-weight: 400; font-size: 12px;">65.0%</tspan></text><text transform="translate(1, 694)"><tspan fill="rgb(51,51,51)" x="0" y="12" style="font-family: BentonSans; font-weight: 400; font-size: 12px;">Kentucky</tspan></text><rect width="23.265625" height="2" transform="translate(399.4375, 700)" fill="rgb(125,115,156)" style="fill: rgb(125, 115, 156);"/><path d="M419.0462646484375 696.8431396484375 L 423.0462646484375 700.8431396484375 L 419.0462646484375 704.8431396484375" stroke="rgb(125,115,156)" style="fill: none; stroke-width: 2; stroke: rgb(125, 115, 156);"/><text transform="translate(427.6875, 694)"><tspan fill="rgb(125,115,156)" x="0" y="12" style="font-family: BentonSans; font-weight: 400; font-size: 12px;">64.9%</tspan></text><text transform="translate(1, 712)"><tspan fill="rgb(51,51,51)" x="0" y="12" style="font-family: BentonSans; font-weight: 400; font-size: 12px;">District of Columbia</tspan></text><rect width="16.421875" height="2" transform="translate(405.375, 718)" fill="rgb(125,115,156)" style="fill: rgb(125, 115, 156);"/><path d="M418.1400146484375 714.8431396484375 L 422.1400146484375 718.8431396484375 L 418.1400146484375 722.8431396484375" stroke="rgb(125,115,156)" style="fill: none; stroke-width: 2; stroke: rgb(125, 115, 156);"/><text transform="translate(426.78125, 712)"><tspan fill="rgb(125,115,156)" x="0" y="12" style="font-family: BentonSans; font-weight: 400; font-size: 12px;">64.7%</tspan></text><text transform="translate(1, 730)"><tspan fill="rgb(51,51,51)" x="0" y="12" style="font-family: BentonSans; font-weight: 400; font-size: 12px;">California</tspan></text><rect width="28.734375" height="2" transform="translate(393.0625, 736)" fill="rgb(125,115,156)" style="fill: rgb(125, 115, 156);"/><path d="M418.1400146484375 732.8431396484375 L 422.1400146484375 736.8431396484375 L 418.1400146484375 740.8431396484375" stroke="rgb(125,115,156)" style="fill: none; stroke-width: 2; stroke: rgb(125, 115, 156);"/><text transform="translate(426.78125, 730)"><tspan fill="rgb(125,115,156)" x="0" y="12" style="font-family: BentonSans; font-weight: 400; font-size: 12px;">64.7%</tspan></text><text transform="translate(1, 748)"><tspan fill="rgb(51,51,51)" x="0" y="12" style="font-family: BentonSans; font-weight: 400; font-size: 12px;">Wyoming</tspan></text><rect width="19.171875" height="2" transform="translate(402.171875, 754)" fill="rgb(125,115,156)" style="fill: rgb(125, 115, 156);"/><path d="M417.6868896484375 750.8431396484375 L 421.6868896484375 754.8431396484375 L 417.6868896484375 758.8431396484375" stroke="rgb(125,115,156)" style="fill: none; stroke-width: 2; stroke: rgb(125, 115, 156);"/><text transform="translate(426.328125, 748)"><tspan fill="rgb(125,115,156)" x="0" y="12" style="font-family: BentonSans; font-weight: 400; font-size: 12px;">64.6%</tspan></text><text transform="translate(1, 766)"><tspan fill="rgb(51,51,51)" x="0" y="12" style="font-family: BentonSans; font-weight: 400; font-size: 12px;">North Dakota</tspan></text><rect width="12.328125" height="2" transform="translate(409.015625, 772)" fill="rgb(125,115,156)" style="fill: rgb(125, 115, 156);"/><path d="M417.6868896484375 768.8431396484375 L 421.6868896484375 772.8431396484375 L 417.6868896484375 776.8431396484375" stroke="rgb(125,115,156)" style="fill: none; stroke-width: 2; stroke: rgb(125, 115, 156);"/><text transform="translate(426.328125, 766)"><tspan fill="rgb(125,115,156)" x="0" y="12" style="font-family: BentonSans; font-weight: 400; font-size: 12px;">64.6%</tspan></text><text transform="translate(1, 784)"><tspan fill="rgb(51,51,51)" x="0" y="12" style="font-family: BentonSans; font-weight: 400; font-size: 12px;">South Carolina</tspan></text><rect width="32.84375" height="2" transform="translate(388.046875, 790)" fill="rgb(125,115,156)" style="fill: rgb(125, 115, 156);"/><path d="M417.2337646484375 786.8431396484375 L 421.2337646484375 790.8431396484375 L 417.2337646484375 794.8431396484375" stroke="rgb(125,115,156)" style="fill: none; stroke-width: 2; stroke: rgb(125, 115, 156);"/><text transform="translate(425.875, 784)"><tspan fill="rgb(125,115,156)" x="0" y="12" style="font-family: BentonSans; font-weight: 400; font-size: 12px;">64.5%</tspan></text><text transform="translate(1, 802)"><tspan fill="rgb(51,51,51)" x="0" y="12" style="font-family: BentonSans; font-weight: 400; font-size: 12px;">Kansas</tspan></text><rect width="19.625" height="2" transform="translate(399.890625, 808)" fill="rgb(125,115,156)" style="fill: rgb(125, 115, 156);"/><path d="M415.8587646484375 804.8431396484375 L 419.8587646484375 808.8431396484375 L 415.8587646484375 812.8431396484375" stroke="rgb(125,115,156)" style="fill: none; stroke-width: 2; stroke: rgb(125, 115, 156);"/><text transform="translate(424.5, 802)"><tspan fill="rgb(125,115,156)" x="0" y="12" style="font-family: BentonSans; font-weight: 400; font-size: 12px;">64.2%</tspan></text><text transform="translate(1, 820)"><tspan fill="rgb(51,51,51)" x="0" y="12" style="font-family: BentonSans; font-weight: 400; font-size: 12px;">Louisiana</tspan></text><rect width="15.0625" height="2" transform="translate(403.09375, 826)" fill="rgb(125,115,156)" style="fill: rgb(125, 115, 156);"/><path d="M414.4993896484375 822.8431396484375 L 418.4993896484375 826.8431396484375 L 414.4993896484375 830.8431396484375" stroke="rgb(125,115,156)" style="fill: none; stroke-width: 2; stroke: rgb(125, 115, 156);"/><text transform="translate(423.140625, 820)"><tspan fill="rgb(125,115,156)" x="0" y="12" style="font-family: BentonSans; font-weight: 400; font-size: 12px;">63.9%</tspan></text><text transform="translate(1, 838)"><tspan fill="rgb(51,51,51)" x="0" y="12" style="font-family: BentonSans; font-weight: 400; font-size: 12px;">Nevada</tspan></text><rect width="28.734375" height="2" transform="translate(388.046875, 844)" fill="rgb(125,115,156)" style="fill: rgb(125, 115, 156);"/><path d="M413.1243896484375 840.8431396484375 L 417.1243896484375 844.8431396484375 L 413.1243896484375 848.8431396484375" stroke="rgb(125,115,156)" style="fill: none; stroke-width: 2; stroke: rgb(125, 115, 156);"/><text transform="translate(421.765625, 838)"><tspan fill="rgb(125,115,156)" x="0" y="12" style="font-family: BentonSans; font-weight: 400; font-size: 12px;">63.6%</tspan></text><text transform="translate(1, 856)"><tspan fill="rgb(51,51,51)" x="0" y="12" style="font-family: BentonSans; font-weight: 400; font-size: 12px;">Alabama</tspan></text><rect width="15.0625" height="2" transform="translate(397.15625, 862)" fill="rgb(125,115,156)" style="fill: rgb(125, 115, 156);"/><path d="M408.5618896484375 858.8431396484375 L 412.5618896484375 862.8431396484375 L 408.5618896484375 866.8431396484375" stroke="rgb(125,115,156)" style="fill: none; stroke-width: 2; stroke: rgb(125, 115, 156);"/><text transform="translate(417.203125, 856)"><tspan fill="rgb(125,115,156)" x="0" y="12" style="font-family: BentonSans; font-weight: 400; font-size: 12px;">62.6%</tspan></text><text transform="translate(1, 874)"><tspan fill="rgb(51,51,51)" x="0" y="12" style="font-family: BentonSans; font-weight: 400; font-size: 12px;">Indiana</tspan></text><rect width="15.96875" height="2" transform="translate(390.78125, 880)" fill="rgb(125,115,156)" style="fill: rgb(125, 115, 156);"/><path d="M403.0931396484375 876.8431396484375 L 407.0931396484375 880.8431396484375 L 403.0931396484375 884.8431396484375" stroke="rgb(125,115,156)" style="fill: none; stroke-width: 2; stroke: rgb(125, 115, 156);"/><text transform="translate(411.734375, 874)"><tspan fill="rgb(125,115,156)" x="0" y="12" style="font-family: BentonSans; font-weight: 400; font-size: 12px;">61.4%</tspan></text><text transform="translate(1, 892)"><tspan fill="rgb(51,51,51)" x="0" y="12" style="font-family: BentonSans; font-weight: 400; font-size: 12px;">New Mexico</tspan></text><rect width="26.453125" height="2" transform="translate(378.46875, 898)" fill="rgb(125,115,156)" style="fill: rgb(125, 115, 156);"/><path d="M401.2650146484375 894.8431396484375 L 405.2650146484375 898.8431396484375 L 401.2650146484375 902.8431396484375" stroke="rgb(125,115,156)" style="fill: none; stroke-width: 2; stroke: rgb(125, 115, 156);"/><text transform="translate(409.90625, 892)"><tspan fill="rgb(125,115,156)" x="0" y="12" style="font-family: BentonSans; font-weight: 400; font-size: 12px;">61.0%</tspan></text><text transform="translate(1, 910)"><tspan fill="rgb(51,51,51)" x="0" y="12" style="font-family: BentonSans; font-weight: 400; font-size: 12px;">Mississippi</tspan></text><rect width="17.796875" height="2" transform="translate(384.390625, 916)" fill="rgb(125,115,156)" style="fill: rgb(125, 115, 156);"/><path d="M398.5306396484375 912.8431396484375 L 402.5306396484375 916.8431396484375 L 398.5306396484375 920.8431396484375" stroke="rgb(125,115,156)" style="fill: none; stroke-width: 2; stroke: rgb(125, 115, 156);"/><text transform="translate(407.171875, 910)"><tspan fill="rgb(125,115,156)" x="0" y="12" style="font-family: BentonSans; font-weight: 400; font-size: 12px;">60.4%</tspan></text><text transform="translate(1, 928)"><tspan fill="rgb(51,51,51)" x="0" y="12" style="font-family: BentonSans; font-weight: 400; font-size: 12px;">Texas</tspan></text><rect width="40.140625" height="2" transform="translate(361.140625, 934)" fill="rgb(125,115,156)" style="fill: rgb(125, 115, 156);"/><path d="M397.6243896484375 930.8431396484375 L 401.6243896484375 934.8431396484375 L 397.6243896484375 938.8431396484375" stroke="rgb(125,115,156)" style="fill: none; stroke-width: 2; stroke: rgb(125, 115, 156);"/><text transform="translate(406.265625, 928)"><tspan fill="rgb(125,115,156)" x="0" y="12" style="font-family: BentonSans; font-weight: 400; font-size: 12px;">60.2%</tspan></text><text transform="translate(1, 946)"><tspan fill="rgb(51,51,51)" x="0" y="12" style="font-family: BentonSans; font-weight: 400; font-size: 12px;">Tennessee</tspan></text><rect width="35.125" height="2" transform="translate(363.875, 952)" fill="rgb(125,115,156)" style="fill: rgb(125, 115, 156);"/><path d="M395.3431396484375 948.8431396484375 L 399.3431396484375 952.8431396484375 L 395.3431396484375 956.8431396484375" stroke="rgb(125,115,156)" style="fill: none; stroke-width: 2; stroke: rgb(125, 115, 156);"/><text transform="translate(403.984375, 946)"><tspan fill="rgb(125,115,156)" x="0" y="12" style="font-family: BentonSans; font-weight: 400; font-size: 12px;">59.7%</tspan></text><text transform="translate(1, 964)"><tspan fill="rgb(51,51,51)" x="0" y="12" style="font-family: BentonSans; font-weight: 400; font-size: 12px;">Hawaii</tspan></text><rect width="66.125" height="2" transform="translate(322.84375, 970)" fill="rgb(125,115,156)" style="fill: rgb(125, 115, 156);"/><path d="M385.3118896484375 966.8431396484375 L 389.3118896484375 970.8431396484375 L 385.3118896484375 974.8431396484375" stroke="rgb(125,115,156)" style="fill: none; stroke-width: 2; stroke: rgb(125, 115, 156);"/><text transform="translate(393.953125, 964)"><tspan fill="rgb(125,115,156)" x="0" y="12" style="font-family: BentonSans; font-weight: 400; font-size: 12px;">57.5%</tspan></text><text transform="translate(1, 982)"><tspan fill="rgb(51,51,51)" x="0" y="12" style="font-family: BentonSans; font-weight: 400; font-size: 12px;">West Virginia</tspan></text><rect width="28.28125" height="2" transform="translate(358.40625, 988)" fill="rgb(125,115,156)" style="fill: rgb(125, 115, 156);"/><path d="M383.0306396484375 984.8431396484375 L 387.0306396484375 988.8431396484375 L 383.0306396484375 992.8431396484375" stroke="rgb(125,115,156)" style="fill: none; stroke-width: 2; stroke: rgb(125, 115, 156);"/><text transform="translate(391.671875, 982)"><tspan fill="rgb(125,115,156)" x="0" y="12" style="font-family: BentonSans; font-weight: 400; font-size: 12px;">57.0%</tspan></text><text transform="translate(1, 1000)"><tspan fill="rgb(51,51,51)" x="0" y="12" style="font-family: BentonSans; font-weight: 400; font-size: 12px;">Arkansas</tspan></text><rect width="10.953125" height="2" transform="translate(368.890625, 1006)" fill="rgb(125,115,156)" style="fill: rgb(125, 115, 156);"/><path d="M376.1868896484375 1002.8431396484375 L 380.1868896484375 1006.8431396484375 L 376.1868896484375 1010.8431396484375" stroke="rgb(125,115,156)" style="fill: none; stroke-width: 2; stroke: rgb(125, 115, 156);"/><text transform="translate(384.828125, 1000)"><tspan fill="rgb(125,115,156)" x="0" y="12" style="font-family: BentonSans; font-weight: 400; font-size: 12px;">55.5%</tspan></text><text transform="translate(1, 1018)"><tspan fill="rgb(51,51,51)" x="0" y="12" style="font-family: BentonSans; font-weight: 400; font-size: 12px;">Oklahoma</tspan></text><rect width="12.328125" height="2" transform="translate(365.25, 1024)" fill="rgb(125,115,156)" style="fill: rgb(125, 115, 156);"/><path d="M373.9212646484375 1020.8431396484375 L 377.9212646484375 1024.8431396484375 L 373.9212646484375 1028.8431396484375" stroke="rgb(125,115,156)" style="fill: none; stroke-width: 2; stroke: rgb(125, 115, 156);"/><text transform="translate(382.5625, 1018)"><tspan fill="rgb(125,115,156)" x="0" y="12" style="font-family: BentonSans; font-weight: 400; font-size: 12px;">55.0%</tspan></text></g><g id="after-body-svg"/><g id="above-footer-svg"/><g id="footer-svg"><g id="footer-inner-svg"><g id="footer-main-svg"><text transform="translate(0, 1072)"><tspan fill="rgb(136,136,136)" x="0" y="11" style="font-family: BentonSans; font-weight: 400; font-size: 11px;">Chart:</tspan><tspan fill="rgb(136,136,136)" y="11" style="font-family: BentonSans; font-weight: 400; font-size: 11px;">​ ​</tspan><tspan fill="rgb(136,136,136)" y="11" style="font-family: BentonSans; font-weight: 400; font-size: 11px;">Jeff Hargarten, Star Tribune</tspan><tspan fill="rgb(136,136,136)" y="11" style="font-family: BentonSans; font-weight: 400; font-size: 11px;">​ •</tspan><tspan fill="rgb(136,136,136)" y="11" style="font-family: BentonSans; font-weight: 400; font-size: 11px;">​ ​</tspan><tspan fill="rgb(136,136,136)" y="11" style="font-family: BentonSans; font-weight: 400; font-size: 11px;">Source</tspan><tspan fill="rgb(136,136,136)" y="11" style="font-family: BentonSans; font-weight: 400; font-size: 11px;">:</tspan><tspan fill="rgb(136,136,136)" y="11" style="font-family: BentonSans; font-weight: 400; font-size: 11px;">​ ​</tspan><tspan fill="rgb(136,136,136)" y="11" style="font-family: BentonSans; font-weight: 400; font-size: 11px;">United States Elections Project</tspan></text></g></g></g><g id="below-footer-svg"/></g></svg>