<svg xmlns:xlink="http://www.w3.org/1999/xlink" xmlns="http://www.w3.org/2000/svg" id="exportSvg" width="600" height="1051"><defs/><g><g id="header-svg"><text transform="translate(0, 0)"><tspan fill="rgb(51,51,51)" x="0" y="17" style="font-family: BentonSans; font-weight: 700; font-size: 19px;">Minnesota's voter turnout still leads the national pack</tspan></text><text transform="translate(0, 30)"><tspan fill="rgb(51,51,51)" x="0" y="16" style="font-family: BentonSans; font-weight: 400; font-size: 15px;">Many states across the country saw massive boosts in voter turnout compared to ​</tspan><tspan fill="rgb(51,51,51)" x="0" y="36" style="font-family: BentonSans; font-weight: 400; font-size: 15px;">the last presidential election. And while Minnesota's already-high turnout didn't rise ​</tspan><tspan fill="rgb(51,51,51)" x="0" y="56" style="font-family: BentonSans; font-weight: 400; font-size: 15px;">as much, it maintained its best-in-nation status.</tspan></text><text transform="translate(0, 100)"><tspan fill="rgb(51,51,51)" x="0" y="12" style="font-family: BentonSans; font-weight: 400; font-size: 12px; letter-spacing: 0.2px;">COMPARING ELIGIBLE VOTER TURNOUT FROM 2016 TO 2020</tspan></text></g><g id="chart-svg"><line x1="120.546875" x2="588.546875" y1="154.5" y2="154.5" style="fill: none; stroke-width: 1; stroke-dasharray: 1, 1; stroke: rgb(238, 238, 238);"/><line x1="120.546875" x2="588.546875" y1="172.5" y2="172.5" style="fill: none; stroke-width: 1; stroke-dasharray: 1, 1; stroke: rgb(238, 238, 238);"/><line x1="120.546875" x2="588.546875" y1="190.5" y2="190.5" style="fill: none; stroke-width: 1; stroke-dasharray: 1, 1; stroke: rgb(238, 238, 238);"/><line x1="120.546875" x2="588.546875" y1="208.5" y2="208.5" style="fill: none; stroke-width: 1; stroke-dasharray: 1, 1; stroke: rgb(238, 238, 238);"/><line x1="120.546875" x2="588.546875" y1="226.5" y2="226.5" style="fill: none; stroke-width: 1; stroke-dasharray: 1, 1; stroke: rgb(238, 238, 238);"/><line x1="120.546875" x2="588.546875" y1="244.5" y2="244.5" style="fill: none; stroke-width: 1; stroke-dasharray: 1, 1; stroke: rgb(238, 238, 238);"/><line x1="120.546875" x2="588.546875" y1="262.5" y2="262.5" style="fill: none; stroke-width: 1; stroke-dasharray: 1, 1; stroke: rgb(238, 238, 238);"/><line x1="120.546875" x2="588.546875" y1="280.5" y2="280.5" style="fill: none; stroke-width: 1; stroke-dasharray: 1, 1; stroke: rgb(238, 238, 238);"/><line x1="120.546875" x2="588.546875" y1="298.5" y2="298.5" style="fill: none; stroke-width: 1; stroke-dasharray: 1, 1; stroke: rgb(238, 238, 238);"/><line x1="120.546875" x2="588.546875" y1="316.5" y2="316.5" style="fill: none; stroke-width: 1; stroke-dasharray: 1, 1; stroke: rgb(238, 238, 238);"/><line x1="120.546875" x2="588.546875" y1="334.5" y2="334.5" style="fill: none; stroke-width: 1; stroke-dasharray: 1, 1; stroke: rgb(238, 238, 238);"/><line x1="120.546875" x2="588.546875" y1="352.5" y2="352.5" style="fill: none; stroke-width: 1; stroke-dasharray: 1, 1; stroke: rgb(238, 238, 238);"/><line x1="120.546875" x2="588.546875" y1="370.5" y2="370.5" style="fill: none; stroke-width: 1; stroke-dasharray: 1, 1; stroke: rgb(238, 238, 238);"/><line x1="120.546875" x2="588.546875" y1="388.5" y2="388.5" style="fill: none; stroke-width: 1; stroke-dasharray: 1, 1; stroke: rgb(238, 238, 238);"/><line x1="120.546875" x2="588.546875" y1="406.5" y2="406.5" style="fill: none; stroke-width: 1; stroke-dasharray: 1, 1; stroke: rgb(238, 238, 238);"/><line x1="120.546875" x2="588.546875" y1="424.5" y2="424.5" style="fill: none; stroke-width: 1; stroke-dasharray: 1, 1; stroke: rgb(238, 238, 238);"/><line x1="120.546875" x2="588.546875" y1="442.5" y2="442.5" style="fill: none; stroke-width: 1; stroke-dasharray: 1, 1; stroke: rgb(238, 238, 238);"/><line x1="120.546875" x2="588.546875" y1="460.5" y2="460.5" style="fill: none; stroke-width: 1; stroke-dasharray: 1, 1; stroke: rgb(238, 238, 238);"/><line x1="120.546875" x2="588.546875" y1="478.5" y2="478.5" style="fill: none; stroke-width: 1; stroke-dasharray: 1, 1; stroke: rgb(238, 238, 238);"/><line x1="120.546875" x2="588.546875" y1="496.5" y2="496.5" style="fill: none; stroke-width: 1; stroke-dasharray: 1, 1; stroke: rgb(238, 238, 238);"/><line x1="120.546875" x2="588.546875" y1="514.5" y2="514.5" style="fill: none; stroke-width: 1; stroke-dasharray: 1, 1; stroke: rgb(238, 238, 238);"/><line x1="120.546875" x2="588.546875" y1="532.5" y2="532.5" style="fill: none; stroke-width: 1; stroke-dasharray: 1, 1; stroke: rgb(238, 238, 238);"/><line x1="120.546875" x2="588.546875" y1="550.5" y2="550.5" style="fill: none; stroke-width: 1; stroke-dasharray: 1, 1; stroke: rgb(238, 238, 238);"/><line x1="120.546875" x2="588.546875" y1="568.5" y2="568.5" style="fill: none; stroke-width: 1; stroke-dasharray: 1, 1; stroke: rgb(238, 238, 238);"/><line x1="120.546875" x2="588.546875" y1="586.5" y2="586.5" style="fill: none; stroke-width: 1; stroke-dasharray: 1, 1; stroke: rgb(238, 238, 238);"/><line x1="120.546875" x2="588.546875" y1="604.5" y2="604.5" style="fill: none; stroke-width: 1; stroke-dasharray: 1, 1; stroke: rgb(238, 238, 238);"/><line x1="120.546875" x2="588.546875" y1="622.5" y2="622.5" style="fill: none; stroke-width: 1; stroke-dasharray: 1, 1; stroke: rgb(238, 238, 238);"/><line x1="120.546875" x2="588.546875" y1="640.5" y2="640.5" style="fill: none; stroke-width: 1; stroke-dasharray: 1, 1; stroke: rgb(238, 238, 238);"/><line x1="120.546875" x2="588.546875" y1="658.5" y2="658.5" style="fill: none; stroke-width: 1; stroke-dasharray: 1, 1; stroke: rgb(238, 238, 238);"/><line x1="120.546875" x2="588.546875" y1="676.5" y2="676.5" style="fill: none; stroke-width: 1; stroke-dasharray: 1, 1; stroke: rgb(238, 238, 238);"/><line x1="120.546875" x2="588.546875" y1="694.5" y2="694.5" style="fill: none; stroke-width: 1; stroke-dasharray: 1, 1; stroke: rgb(238, 238, 238);"/><line x1="120.546875" x2="588.546875" y1="712.5" y2="712.5" style="fill: none; stroke-width: 1; stroke-dasharray: 1, 1; stroke: rgb(238, 238, 238);"/><line x1="120.546875" x2="588.546875" y1="730.5" y2="730.5" style="fill: none; stroke-width: 1; stroke-dasharray: 1, 1; stroke: rgb(238, 238, 238);"/><line x1="120.546875" x2="588.546875" y1="748.5" y2="748.5" style="fill: none; stroke-width: 1; stroke-dasharray: 1, 1; stroke: rgb(238, 238, 238);"/><line x1="120.546875" x2="588.546875" y1="766.5" y2="766.5" style="fill: none; stroke-width: 1; stroke-dasharray: 1, 1; stroke: rgb(238, 238, 238);"/><line x1="120.546875" x2="588.546875" y1="784.5" y2="784.5" style="fill: none; stroke-width: 1; stroke-dasharray: 1, 1; stroke: rgb(238, 238, 238);"/><line x1="120.546875" x2="588.546875" y1="802.5" y2="802.5" style="fill: none; stroke-width: 1; stroke-dasharray: 1, 1; stroke: rgb(238, 238, 238);"/><line x1="120.546875" x2="588.546875" y1="820.5" y2="820.5" style="fill: none; stroke-width: 1; stroke-dasharray: 1, 1; stroke: rgb(238, 238, 238);"/><line x1="120.546875" x2="588.546875" y1="838.5" y2="838.5" style="fill: none; stroke-width: 1; stroke-dasharray: 1, 1; stroke: rgb(238, 238, 238);"/><line x1="120.546875" x2="588.546875" y1="856.5" y2="856.5" style="fill: none; stroke-width: 1; stroke-dasharray: 1, 1; stroke: rgb(238, 238, 238);"/><line x1="120.546875" x2="588.546875" y1="874.5" y2="874.5" style="fill: none; stroke-width: 1; stroke-dasharray: 1, 1; stroke: rgb(238, 238, 238);"/><line x1="120.546875" x2="588.546875" y1="892.5" y2="892.5" style="fill: none; stroke-width: 1; stroke-dasharray: 1, 1; stroke: rgb(238, 238, 238);"/><line x1="120.546875" x2="588.546875" y1="910.5" y2="910.5" style="fill: none; stroke-width: 1; stroke-dasharray: 1, 1; stroke: rgb(238, 238, 238);"/><line x1="120.546875" x2="588.546875" y1="928.5" y2="928.5" style="fill: none; stroke-width: 1; stroke-dasharray: 1, 1; stroke: rgb(238, 238, 238);"/><line x1="120.546875" x2="588.546875" y1="946.5" y2="946.5" style="fill: none; stroke-width: 1; stroke-dasharray: 1, 1; stroke: rgb(238, 238, 238);"/><line x1="120.546875" x2="588.546875" y1="964.5" y2="964.5" style="fill: none; stroke-width: 1; stroke-dasharray: 1, 1; stroke: rgb(238, 238, 238);"/><line x1="120.546875" x2="588.546875" y1="982.5" y2="982.5" style="fill: none; stroke-width: 1; stroke-dasharray: 1, 1; stroke: rgb(238, 238, 238);"/><line x1="120.546875" x2="588.546875" y1="1000.5" y2="1000.5" style="fill: none; stroke-width: 1; stroke-dasharray: 1, 1; stroke: rgb(238, 238, 238);"/><line x1="120.546875" x2="588.546875" y1="1018.5" y2="1018.5" style="fill: none; stroke-width: 1; stroke-dasharray: 1, 1; stroke: rgb(238, 238, 238);"/><line x1="120.546875" x2="588.546875" y1="1036.5" y2="1036.5" style="fill: none; stroke-width: 1; stroke-dasharray: 1, 1; stroke: rgb(238, 238, 238);"/><line x1="120.546875" x2="588.546875" y1="1054.5" y2="1054.5" style="fill: none; stroke-width: 1; stroke-dasharray: 1, 1; stroke: rgb(238, 238, 238);"/><line x1="120.546875" x2="588.546875" y1="1072.5" y2="1072.5" style="fill: none; stroke-width: 1; stroke-dasharray: 1, 1; stroke: rgb(238, 238, 238);"/><rect width="0.5" height="932" transform="translate(127.28125, 148)" fill="none" style="fill: none;"/><path d="M 126.78125 148 v 932" style="fill: none; stroke-width: 1; stroke: rgb(173, 173, 173);"/><text transform="translate(127.78125, 1084)" style="text-anchor: middle;"><tspan fill="rgb(133,133,133)" x="0" y="12" style="font-family: BentonSans; font-weight: 400; font-size: 12px;">0.0%</tspan></text><rect width="0.5" height="932" transform="translate(241.265625, 148)" fill="none" style="fill: none;"/><path d="M 240.765625 148 v 932" style="fill: none; stroke-width: 1; stroke: rgb(238, 238, 238);"/><text transform="translate(241.765625, 1084)" style="text-anchor: middle;"><tspan fill="rgb(133,133,133)" x="0" y="12" style="font-family: BentonSans; font-weight: 400; font-size: 12px;">25.0%</tspan></text><rect width="0.5" height="932" transform="translate(355.265625, 148)" fill="none" style="fill: none;"/><path d="M 354.765625 148 v 932" style="fill: none; stroke-width: 1; stroke: rgb(238, 238, 238);"/><text transform="translate(355.765625, 1084)" style="text-anchor: middle;"><tspan fill="rgb(133,133,133)" x="0" y="12" style="font-family: BentonSans; font-weight: 400; font-size: 12px;">50.0%</tspan></text><rect width="0.5" height="932" transform="translate(469.25, 148)" fill="none" style="fill: none;"/><path d="M 468.75 148 v 932" style="fill: none; stroke-width: 1; stroke: rgb(238, 238, 238);"/><text transform="translate(469.75, 1084)" style="text-anchor: middle;"><tspan fill="rgb(133,133,133)" x="0" y="12" style="font-family: BentonSans; font-weight: 400; font-size: 12px;">75.0%</tspan></text><rect width="0.5" height="932" transform="translate(583.234375, 148)" fill="none" style="fill: none;"/><path d="M 582.734375 148 v 932" style="fill: none; stroke-width: 1; stroke: rgb(238, 238, 238);"/><text transform="translate(583.734375, 1084)" style="text-anchor: end;"><tspan fill="rgb(133,133,133)" x="0" y="12" style="font-family: BentonSans; font-weight: 400; font-size: 12px;">100.0%</tspan></text><text transform="translate(1, 148)"><tspan fill="rgb(51,51,51)" x="0" y="12" style="font-family: BentonSans; font-weight: 400; font-size: 12px;">Minnesota</tspan></text><rect width="23.265625" height="2" transform="translate(467.828125, 154)" fill="rgb(125,115,156)" style="fill: rgb(125, 115, 156);"/><path d="M487.4368896484375 150.8431396484375 L 491.4368896484375 154.8431396484375 L 487.4368896484375 158.8431396484375" stroke="rgb(125,115,156)" style="fill: none; stroke-width: 2; stroke: rgb(125, 115, 156);"/><text transform="translate(496.078125, 148)"><tspan fill="rgb(125,115,156)" x="0" y="12" style="font-family: BentonSans; font-weight: 400; font-size: 12px;">79.9%</tspan></text><text transform="translate(1, 166)"><tspan fill="rgb(51,51,51)" x="0" y="12" style="font-family: BentonSans; font-weight: 400; font-size: 12px;">Maine</tspan></text><rect width="29.1875" height="2" transform="translate(458.71875, 172)" fill="rgb(125,115,156)" style="fill: rgb(125, 115, 156);"/><path d="M484.2493896484375 168.8431396484375 L 488.2493896484375 172.8431396484375 L 484.2493896484375 176.8431396484375" stroke="rgb(125,115,156)" style="fill: none; stroke-width: 2; stroke: rgb(125, 115, 156);"/><text transform="translate(492.890625, 166)"><tspan fill="rgb(125,115,156)" x="0" y="12" style="font-family: BentonSans; font-weight: 400; font-size: 12px;">79.2%</tspan></text><text transform="translate(1, 184)"><tspan fill="rgb(51,51,51)" x="0" y="12" style="font-family: BentonSans; font-weight: 400; font-size: 12px;">Iowa</tspan></text><rect width="43.78125" height="2" transform="translate(441.390625, 190)" fill="rgb(125,115,156)" style="fill: rgb(125, 115, 156);"/><path d="M481.5150146484375 186.8431396484375 L 485.5150146484375 190.8431396484375 L 481.5150146484375 194.8431396484375" stroke="rgb(125,115,156)" style="fill: none; stroke-width: 2; stroke: rgb(125, 115, 156);"/><text transform="translate(490.15625, 184)"><tspan fill="rgb(125,115,156)" x="0" y="12" style="font-family: BentonSans; font-weight: 400; font-size: 12px;">78.6%</tspan></text><text transform="translate(1, 202)"><tspan fill="rgb(51,51,51)" x="0" y="12" style="font-family: BentonSans; font-weight: 400; font-size: 12px;">Colorado</tspan></text><rect width="19.625" height="2" transform="translate(455.515625, 208)" fill="rgb(125,115,156)" style="fill: rgb(125, 115, 156);"/><path d="M471.4837646484375 204.8431396484375 L 475.4837646484375 208.8431396484375 L 471.4837646484375 212.8431396484375" stroke="rgb(125,115,156)" style="fill: none; stroke-width: 2; stroke: rgb(125, 115, 156);"/><text transform="translate(480.125, 202)"><tspan fill="rgb(125,115,156)" x="0" y="12" style="font-family: BentonSans; font-weight: 400; font-size: 12px;">76.4%</tspan></text><text transform="translate(1, 220)"><tspan fill="rgb(51,51,51)" x="0" y="12" style="font-family: BentonSans; font-weight: 400; font-size: 12px;">Wisconsin</tspan></text><rect width="25.546875" height="2" transform="translate(448.234375, 226)" fill="rgb(125,115,156)" style="fill: rgb(125, 115, 156);"/><path d="M470.1243896484375 222.8431396484375 L 474.1243896484375 226.8431396484375 L 470.1243896484375 230.8431396484375" stroke="rgb(125,115,156)" style="fill: none; stroke-width: 2; stroke: rgb(125, 115, 156);"/><text transform="translate(478.765625, 220)"><tspan fill="rgb(125,115,156)" x="0" y="12" style="font-family: BentonSans; font-weight: 400; font-size: 12px;">76.1%</tspan></text><text transform="translate(1, 238)"><tspan fill="rgb(51,51,51)" x="0" y="12" style="font-family: BentonSans; font-weight: 400; font-size: 12px;">Washington</tspan></text><rect width="44.234375" height="2" transform="translate(426.34375, 244)" fill="rgb(125,115,156)" style="fill: rgb(125, 115, 156);"/><path d="M466.9212646484375 240.8431396484375 L 470.9212646484375 244.8431396484375 L 466.9212646484375 248.8431396484375" stroke="rgb(125,115,156)" style="fill: none; stroke-width: 2; stroke: rgb(125, 115, 156);"/><text transform="translate(475.5625, 238)"><tspan fill="rgb(125,115,156)" x="0" y="12" style="font-family: BentonSans; font-weight: 400; font-size: 12px;">75.4%</tspan></text><text transform="translate(1, 256)"><tspan fill="rgb(51,51,51)" x="0" y="12" style="font-family: BentonSans; font-weight: 400; font-size: 12px;">New Hampshire</tspan></text><rect width="13.234375" height="2" transform="translate(457.34375, 262)" fill="rgb(125,115,156)" style="fill: rgb(125, 115, 156);"/><path d="M466.9212646484375 258.8431396484375 L 470.9212646484375 262.8431396484375 L 466.9212646484375 266.8431396484375" stroke="rgb(125,115,156)" style="fill: none; stroke-width: 2; stroke: rgb(125, 115, 156);"/><text transform="translate(475.5625, 256)"><tspan fill="rgb(125,115,156)" x="0" y="12" style="font-family: BentonSans; font-weight: 400; font-size: 12px;">75.4%</tspan></text><text transform="translate(1, 274)"><tspan fill="rgb(51,51,51)" x="0" y="12" style="font-family: BentonSans; font-weight: 400; font-size: 12px;">Oregon</tspan></text><rect width="31.46875" height="2" transform="translate(438.203125, 280)" fill="rgb(125,115,156)" style="fill: rgb(125, 115, 156);"/><path d="M466.0150146484375 276.8431396484375 L 470.0150146484375 280.8431396484375 L 466.0150146484375 284.8431396484375" stroke="rgb(125,115,156)" style="fill: none; stroke-width: 2; stroke: rgb(125, 115, 156);"/><text transform="translate(474.65625, 274)"><tspan fill="rgb(125,115,156)" x="0" y="12" style="font-family: BentonSans; font-weight: 400; font-size: 12px;">75.2%</tspan></text><text transform="translate(1, 292)"><tspan fill="rgb(51,51,51)" x="0" y="12" style="font-family: BentonSans; font-weight: 400; font-size: 12px;">Vermont</tspan></text><rect width="41.96875" height="2" transform="translate(422.234375, 298)" fill="rgb(125,115,156)" style="fill: rgb(125, 115, 156);"/><path d="M460.5462646484375 294.8431396484375 L 464.5462646484375 298.8431396484375 L 460.5462646484375 302.8431396484375" stroke="rgb(125,115,156)" style="fill: none; stroke-width: 2; stroke: rgb(125, 115, 156);"/><text transform="translate(469.1875, 292)"><tspan fill="rgb(125,115,156)" x="0" y="12" style="font-family: BentonSans; font-weight: 400; font-size: 12px;">74.0%</tspan></text><text transform="translate(1, 310)"><tspan fill="rgb(51,51,51)" x="0" y="12" style="font-family: BentonSans; font-weight: 400; font-size: 12px;">Michigan</tspan></text><rect width="36.03125" height="2" transform="translate(426.34375, 316)" fill="rgb(125,115,156)" style="fill: rgb(125, 115, 156);"/><path d="M458.7181396484375 312.8431396484375 L 462.7181396484375 316.8431396484375 L 458.7181396484375 320.8431396484375" stroke="rgb(125,115,156)" style="fill: none; stroke-width: 2; stroke: rgb(125, 115, 156);"/><text transform="translate(467.359375, 310)"><tspan fill="rgb(125,115,156)" x="0" y="12" style="font-family: BentonSans; font-weight: 400; font-size: 12px;">73.6%</tspan></text><text transform="translate(1, 328)"><tspan fill="rgb(51,51,51)" x="0" y="12" style="font-family: BentonSans; font-weight: 400; font-size: 12px;">Massachusetts</tspan></text><rect width="23.265625" height="2" transform="translate(438.203125, 334)" fill="rgb(125,115,156)" style="fill: rgb(125, 115, 156);"/><path d="M457.8118896484375 330.8431396484375 L 461.8118896484375 334.8431396484375 L 457.8118896484375 338.8431396484375" stroke="rgb(125,115,156)" style="fill: none; stroke-width: 2; stroke: rgb(125, 115, 156);"/><text transform="translate(466.453125, 328)"><tspan fill="rgb(125,115,156)" x="0" y="12" style="font-family: BentonSans; font-weight: 400; font-size: 12px;">73.4%</tspan></text><text transform="translate(1, 346)"><tspan fill="rgb(51,51,51)" x="0" y="12" style="font-family: BentonSans; font-weight: 400; font-size: 12px;">Montana</tspan></text><rect width="40.140625" height="2" transform="translate(419.953125, 352)" fill="rgb(125,115,156)" style="fill: rgb(125, 115, 156);"/><path d="M456.4368896484375 348.8431396484375 L 460.4368896484375 352.8431396484375 L 456.4368896484375 356.8431396484375" stroke="rgb(125,115,156)" style="fill: none; stroke-width: 2; stroke: rgb(125, 115, 156);"/><text transform="translate(465.078125, 346)"><tspan fill="rgb(125,115,156)" x="0" y="12" style="font-family: BentonSans; font-weight: 400; font-size: 12px;">73.1%</tspan></text><text transform="translate(1, 364)"><tspan fill="rgb(51,51,51)" x="0" y="12" style="font-family: BentonSans; font-weight: 400; font-size: 12px;">New Jersey</tspan></text><rect width="34.21875" height="2" transform="translate(425.421875, 370)" fill="rgb(125,115,156)" style="fill: rgb(125, 115, 156);"/><path d="M455.9837646484375 366.8431396484375 L 459.9837646484375 370.8431396484375 L 455.9837646484375 374.8431396484375" stroke="rgb(125,115,156)" style="fill: none; stroke-width: 2; stroke: rgb(125, 115, 156);"/><text transform="translate(464.625, 364)"><tspan fill="rgb(125,115,156)" x="0" y="12" style="font-family: BentonSans; font-weight: 400; font-size: 12px;">73.0%</tspan></text><text transform="translate(1, 382)"><tspan fill="rgb(51,51,51)" x="0" y="12" style="font-family: BentonSans; font-weight: 400; font-size: 12px;">North Carolina</tspan></text><rect width="29.65625" height="2" transform="translate(426.34375, 388)" fill="rgb(125,115,156)" style="fill: rgb(125, 115, 156);"/><path d="M452.3431396484375 384.8431396484375 L 456.3431396484375 388.8431396484375 L 452.3431396484375 392.8431396484375" stroke="rgb(125,115,156)" style="fill: none; stroke-width: 2; stroke: rgb(125, 115, 156);"/><text transform="translate(460.984375, 382)"><tspan fill="rgb(125,115,156)" x="0" y="12" style="font-family: BentonSans; font-weight: 400; font-size: 12px;">72.2%</tspan></text><text transform="translate(1, 400)"><tspan fill="rgb(51,51,51)" x="0" y="12" style="font-family: BentonSans; font-weight: 400; font-size: 12px;">Florida</tspan></text><rect width="27.375" height="2" transform="translate(426.34375, 406)" fill="rgb(125,115,156)" style="fill: rgb(125, 115, 156);"/><path d="M450.0618896484375 402.8431396484375 L 454.0618896484375 406.8431396484375 L 450.0618896484375 410.8431396484375" stroke="rgb(125,115,156)" style="fill: none; stroke-width: 2; stroke: rgb(125, 115, 156);"/><text transform="translate(458.703125, 400)"><tspan fill="rgb(125,115,156)" x="0" y="12" style="font-family: BentonSans; font-weight: 400; font-size: 12px;">71.7%</tspan></text><text transform="translate(1, 418)"><tspan fill="rgb(51,51,51)" x="0" y="12" style="font-family: BentonSans; font-weight: 400; font-size: 12px;">Virginia</tspan></text><rect width="19.15625" height="2" transform="translate(433.1875, 424)" fill="rgb(125,115,156)" style="fill: rgb(125, 115, 156);"/><path d="M448.6868896484375 420.8431396484375 L 452.6868896484375 424.8431396484375 L 448.6868896484375 428.8431396484375" stroke="rgb(125,115,156)" style="fill: none; stroke-width: 2; stroke: rgb(125, 115, 156);"/><text transform="translate(457.328125, 418)"><tspan fill="rgb(125,115,156)" x="0" y="12" style="font-family: BentonSans; font-weight: 400; font-size: 12px;">71.4%</tspan></text><text transform="translate(1, 436)"><tspan fill="rgb(51,51,51)" x="0" y="12" style="font-family: BentonSans; font-weight: 400; font-size: 12px;">Connecticut</tspan></text><rect width="26.015625" height="2" transform="translate(424.96875, 442)" fill="rgb(125,115,156)" style="fill: rgb(125, 115, 156);"/><path d="M447.3275146484375 438.8431396484375 L 451.3275146484375 442.8431396484375 L 447.3275146484375 446.8431396484375" stroke="rgb(125,115,156)" style="fill: none; stroke-width: 2; stroke: rgb(125, 115, 156);"/><text transform="translate(455.96875, 436)"><tspan fill="rgb(125,115,156)" x="0" y="12" style="font-family: BentonSans; font-weight: 400; font-size: 12px;">71.1%</tspan></text><text transform="translate(1, 454)"><tspan fill="rgb(51,51,51)" x="0" y="12" style="font-family: BentonSans; font-weight: 400; font-size: 12px;">Maryland</tspan></text><rect width="15.96875" height="2" transform="translate(433.1875, 460)" fill="rgb(125,115,156)" style="fill: rgb(125, 115, 156);"/><path d="M445.4993896484375 456.8431396484375 L 449.4993896484375 460.8431396484375 L 445.4993896484375 464.8431396484375" stroke="rgb(125,115,156)" style="fill: none; stroke-width: 2; stroke: rgb(125, 115, 156);"/><text transform="translate(454.140625, 454)"><tspan fill="rgb(125,115,156)" x="0" y="12" style="font-family: BentonSans; font-weight: 400; font-size: 12px;">70.7%</tspan></text><text transform="translate(1, 472)"><tspan fill="rgb(51,51,51)" x="0" y="12" style="font-family: BentonSans; font-weight: 400; font-size: 12px;">Pennsylvania</tspan></text><rect width="29.65625" height="2" transform="translate(418.59375, 478)" fill="rgb(125,115,156)" style="fill: rgb(125, 115, 156);"/><path d="M444.5931396484375 474.8431396484375 L 448.5931396484375 478.8431396484375 L 444.5931396484375 482.8431396484375" stroke="rgb(125,115,156)" style="fill: none; stroke-width: 2; stroke: rgb(125, 115, 156);"/><text transform="translate(453.234375, 472)"><tspan fill="rgb(125,115,156)" x="0" y="12" style="font-family: BentonSans; font-weight: 400; font-size: 12px;">70.5%</tspan></text><text transform="translate(1, 490)"><tspan fill="rgb(51,51,51)" x="0" y="12" style="font-family: BentonSans; font-weight: 400; font-size: 12px;">Delaware</tspan></text><rect width="26.921875" height="2" transform="translate(421.328125, 496)" fill="rgb(125,115,156)" style="fill: rgb(125, 115, 156);"/><path d="M444.5931396484375 492.8431396484375 L 448.5931396484375 496.8431396484375 L 444.5931396484375 500.8431396484375" stroke="rgb(125,115,156)" style="fill: none; stroke-width: 2; stroke: rgb(125, 115, 156);"/><text transform="translate(453.234375, 490)"><tspan fill="rgb(125,115,156)" x="0" y="12" style="font-family: BentonSans; font-weight: 400; font-size: 12px;">70.5%</tspan></text><text transform="translate(1, 508)"><tspan fill="rgb(51,51,51)" x="0" y="12" style="font-family: BentonSans; font-weight: 400; font-size: 12px;">Alaska</tspan></text><rect width="36.484375" height="2" transform="translate(408.5625, 514)" fill="rgb(125,115,156)" style="fill: rgb(125, 115, 156);"/><path d="M441.3900146484375 510.8431396484375 L 445.3900146484375 514.8431396484375 L 441.3900146484375 518.8431396484375" stroke="rgb(125,115,156)" style="fill: none; stroke-width: 2; stroke: rgb(125, 115, 156);"/><text transform="translate(450.03125, 508)"><tspan fill="rgb(125,115,156)" x="0" y="12" style="font-family: BentonSans; font-weight: 400; font-size: 12px;">69.8%</tspan></text><text transform="translate(1, 526)"><tspan fill="rgb(51,51,51)" x="0" y="12" style="font-family: BentonSans; font-weight: 400; font-size: 12px;">Ohio</tspan></text><rect width="21.453125" height="2" transform="translate(419.5, 532)" fill="rgb(125,115,156)" style="fill: rgb(125, 115, 156);"/><path d="M437.2962646484375 528.8431396484375 L 441.2962646484375 532.8431396484375 L 437.2962646484375 536.8431396484375" stroke="rgb(125,115,156)" style="fill: none; stroke-width: 2; stroke: rgb(125, 115, 156);"/><text transform="translate(445.9375, 526)"><tspan fill="rgb(125,115,156)" x="0" y="12" style="font-family: BentonSans; font-weight: 400; font-size: 12px;">68.9%</tspan></text><text transform="translate(1, 544)"><tspan fill="rgb(51,51,51)" x="0" y="12" style="font-family: BentonSans; font-weight: 400; font-size: 12px;">Nebraska</tspan></text><rect width="21.90625" height="2" transform="translate(417.671875, 550)" fill="rgb(125,115,156)" style="fill: rgb(125, 115, 156);"/><path d="M435.9212646484375 546.8431396484375 L 439.9212646484375 550.8431396484375 L 435.9212646484375 554.8431396484375" stroke="rgb(125,115,156)" style="fill: none; stroke-width: 2; stroke: rgb(125, 115, 156);"/><text transform="translate(444.5625, 544)"><tspan fill="rgb(125,115,156)" x="0" y="12" style="font-family: BentonSans; font-weight: 400; font-size: 12px;">68.6%</tspan></text><text transform="translate(1, 562)"><tspan fill="rgb(51,51,51)" x="0" y="12" style="font-family: BentonSans; font-weight: 400; font-size: 12px;">Georgia</tspan></text><rect width="37.40625" height="2" transform="translate(399.890625, 568)" fill="rgb(125,115,156)" style="fill: rgb(125, 115, 156);"/><path d="M433.6400146484375 564.8431396484375 L 437.6400146484375 568.8431396484375 L 433.6400146484375 572.8431396484375" stroke="rgb(125,115,156)" style="fill: none; stroke-width: 2; stroke: rgb(125, 115, 156);"/><text transform="translate(442.28125, 562)"><tspan fill="rgb(125,115,156)" x="0" y="12" style="font-family: BentonSans; font-weight: 400; font-size: 12px;">68.1%</tspan></text><text transform="translate(1, 580)"><tspan fill="rgb(51,51,51)" x="0" y="12" style="font-family: BentonSans; font-weight: 400; font-size: 12px;">Idaho</tspan></text><rect width="31.015625" height="2" transform="translate(404.453125, 586)" fill="rgb(125,115,156)" style="fill: rgb(125, 115, 156);"/><path d="M431.8118896484375 582.8431396484375 L 435.8118896484375 586.8431396484375 L 431.8118896484375 590.8431396484375" stroke="rgb(125,115,156)" style="fill: none; stroke-width: 2; stroke: rgb(125, 115, 156);"/><text transform="translate(440.453125, 580)"><tspan fill="rgb(125,115,156)" x="0" y="12" style="font-family: BentonSans; font-weight: 400; font-size: 12px;">67.7%</tspan></text><text transform="translate(1, 598)"><tspan fill="rgb(51,51,51)" x="0" y="12" style="font-family: BentonSans; font-weight: 400; font-size: 12px;">Illinois</tspan></text><rect width="19.15625" height="2" transform="translate(415.859375, 604)" fill="rgb(125,115,156)" style="fill: rgb(125, 115, 156);"/><path d="M431.3587646484375 600.8431396484375 L 435.3587646484375 604.8431396484375 L 431.3587646484375 608.8431396484375" stroke="rgb(125,115,156)" style="fill: none; stroke-width: 2; stroke: rgb(125, 115, 156);"/><text transform="translate(440, 598)"><tspan fill="rgb(125,115,156)" x="0" y="12" style="font-family: BentonSans; font-weight: 400; font-size: 12px;">67.6%</tspan></text><text transform="translate(1, 616)"><tspan fill="rgb(51,51,51)" x="0" y="12" style="font-family: BentonSans; font-weight: 400; font-size: 12px;">United States</tspan></text><rect width="28.28125" height="2" transform="translate(401.265625, 622)" fill="rgb(125,115,156)" style="fill: rgb(125, 115, 156);"/><path d="M425.8900146484375 618.8431396484375 L 429.8900146484375 622.8431396484375 L 425.8900146484375 626.8431396484375" stroke="rgb(125,115,156)" style="fill: none; stroke-width: 2; stroke: rgb(125, 115, 156);"/><text transform="translate(434.53125, 616)"><tspan fill="rgb(125,115,156)" x="0" y="12" style="font-family: BentonSans; font-weight: 400; font-size: 12px;">66.4%</tspan></text><text transform="translate(1, 634)"><tspan fill="rgb(51,51,51)" x="0" y="12" style="font-family: BentonSans; font-weight: 400; font-size: 12px;">Missouri</tspan></text><rect width="18.25" height="2" transform="translate(410.84375, 640)" fill="rgb(125,115,156)" style="fill: rgb(125, 115, 156);"/><path d="M425.4368896484375 636.8431396484375 L 429.4368896484375 640.8431396484375 L 425.4368896484375 644.8431396484375" stroke="rgb(125,115,156)" style="fill: none; stroke-width: 2; stroke: rgb(125, 115, 156);"/><text transform="translate(434.078125, 634)"><tspan fill="rgb(125,115,156)" x="0" y="12" style="font-family: BentonSans; font-weight: 400; font-size: 12px;">66.3%</tspan></text><text transform="translate(1, 652)"><tspan fill="rgb(51,51,51)" x="0" y="12" style="font-family: BentonSans; font-weight: 400; font-size: 12px;">Utah</tspan></text><rect width="38.78125" height="2" transform="translate(389.859375, 658)" fill="rgb(125,115,156)" style="fill: rgb(125, 115, 156);"/><path d="M424.9837646484375 654.8431396484375 L 428.9837646484375 658.8431396484375 L 424.9837646484375 662.8431396484375" stroke="rgb(125,115,156)" style="fill: none; stroke-width: 2; stroke: rgb(125, 115, 156);"/><text transform="translate(433.625, 652)"><tspan fill="rgb(125,115,156)" x="0" y="12" style="font-family: BentonSans; font-weight: 400; font-size: 12px;">66.2%</tspan></text><text transform="translate(1, 670)"><tspan fill="rgb(51,51,51)" x="0" y="12" style="font-family: BentonSans; font-weight: 400; font-size: 12px;">South Dakota</tspan></text><rect width="33.75" height="2" transform="translate(393.96875, 676)" fill="rgb(125,115,156)" style="fill: rgb(125, 115, 156);"/><path d="M424.0618896484375 672.8431396484375 L 428.0618896484375 676.8431396484375 L 424.0618896484375 680.8431396484375" stroke="rgb(125,115,156)" style="fill: none; stroke-width: 2; stroke: rgb(125, 115, 156);"/><text transform="translate(432.703125, 670)"><tspan fill="rgb(125,115,156)" x="0" y="12" style="font-family: BentonSans; font-weight: 400; font-size: 12px;">66.0%</tspan></text><text transform="translate(1, 688)"><tspan fill="rgb(51,51,51)" x="0" y="12" style="font-family: BentonSans; font-weight: 400; font-size: 12px;">Arizona</tspan></text><rect width="42.40625" height="2" transform="translate(383.03125, 694)" fill="rgb(125,115,156)" style="fill: rgb(125, 115, 156);"/><path d="M421.7806396484375 690.8431396484375 L 425.7806396484375 694.8431396484375 L 421.7806396484375 698.8431396484375" stroke="rgb(125,115,156)" style="fill: none; stroke-width: 2; stroke: rgb(125, 115, 156);"/><text transform="translate(430.421875, 688)"><tspan fill="rgb(125,115,156)" x="0" y="12" style="font-family: BentonSans; font-weight: 400; font-size: 12px;">65.5%</tspan></text><text transform="translate(1, 706)"><tspan fill="rgb(51,51,51)" x="0" y="12" style="font-family: BentonSans; font-weight: 400; font-size: 12px;">New York</tspan></text><rect width="36.484375" height="2" transform="translate(388.046875, 712)" fill="rgb(125,115,156)" style="fill: rgb(125, 115, 156);"/><path d="M420.8743896484375 708.8431396484375 L 424.8743896484375 712.8431396484375 L 420.8743896484375 716.8431396484375" stroke="rgb(125,115,156)" style="fill: none; stroke-width: 2; stroke: rgb(125, 115, 156);"/><text transform="translate(429.515625, 706)"><tspan fill="rgb(125,115,156)" x="0" y="12" style="font-family: BentonSans; font-weight: 400; font-size: 12px;">65.3%</tspan></text><text transform="translate(1, 724)"><tspan fill="rgb(51,51,51)" x="0" y="12" style="font-family: BentonSans; font-weight: 400; font-size: 12px;">Rhode Island</tspan></text><rect width="24.1875" height="2" transform="translate(398.984375, 730)" fill="rgb(125,115,156)" style="fill: rgb(125, 115, 156);"/><path d="M419.5150146484375 726.8431396484375 L 423.5150146484375 730.8431396484375 L 419.5150146484375 734.8431396484375" stroke="rgb(125,115,156)" style="fill: none; stroke-width: 2; stroke: rgb(125, 115, 156);"/><text transform="translate(428.15625, 724)"><tspan fill="rgb(125,115,156)" x="0" y="12" style="font-family: BentonSans; font-weight: 400; font-size: 12px;">65.0%</tspan></text><text transform="translate(1, 742)"><tspan fill="rgb(51,51,51)" x="0" y="12" style="font-family: BentonSans; font-weight: 400; font-size: 12px;">Kentucky</tspan></text><rect width="23.265625" height="2" transform="translate(399.4375, 748)" fill="rgb(125,115,156)" style="fill: rgb(125, 115, 156);"/><path d="M419.0462646484375 744.8431396484375 L 423.0462646484375 748.8431396484375 L 419.0462646484375 752.8431396484375" stroke="rgb(125,115,156)" style="fill: none; stroke-width: 2; stroke: rgb(125, 115, 156);"/><text transform="translate(427.6875, 742)"><tspan fill="rgb(125,115,156)" x="0" y="12" style="font-family: BentonSans; font-weight: 400; font-size: 12px;">64.9%</tspan></text><text transform="translate(1, 760)"><tspan fill="rgb(51,51,51)" x="0" y="12" style="font-family: BentonSans; font-weight: 400; font-size: 12px;">District of Columbia</tspan></text><rect width="16.421875" height="2" transform="translate(405.375, 766)" fill="rgb(125,115,156)" style="fill: rgb(125, 115, 156);"/><path d="M418.1400146484375 762.8431396484375 L 422.1400146484375 766.8431396484375 L 418.1400146484375 770.8431396484375" stroke="rgb(125,115,156)" style="fill: none; stroke-width: 2; stroke: rgb(125, 115, 156);"/><text transform="translate(426.78125, 760)"><tspan fill="rgb(125,115,156)" x="0" y="12" style="font-family: BentonSans; font-weight: 400; font-size: 12px;">64.7%</tspan></text><text transform="translate(1, 778)"><tspan fill="rgb(51,51,51)" x="0" y="12" style="font-family: BentonSans; font-weight: 400; font-size: 12px;">California</tspan></text><rect width="28.734375" height="2" transform="translate(393.0625, 784)" fill="rgb(125,115,156)" style="fill: rgb(125, 115, 156);"/><path d="M418.1400146484375 780.8431396484375 L 422.1400146484375 784.8431396484375 L 418.1400146484375 788.8431396484375" stroke="rgb(125,115,156)" style="fill: none; stroke-width: 2; stroke: rgb(125, 115, 156);"/><text transform="translate(426.78125, 778)"><tspan fill="rgb(125,115,156)" x="0" y="12" style="font-family: BentonSans; font-weight: 400; font-size: 12px;">64.7%</tspan></text><text transform="translate(1, 796)"><tspan fill="rgb(51,51,51)" x="0" y="12" style="font-family: BentonSans; font-weight: 400; font-size: 12px;">Wyoming</tspan></text><rect width="19.171875" height="2" transform="translate(402.171875, 802)" fill="rgb(125,115,156)" style="fill: rgb(125, 115, 156);"/><path d="M417.6868896484375 798.8431396484375 L 421.6868896484375 802.8431396484375 L 417.6868896484375 806.8431396484375" stroke="rgb(125,115,156)" style="fill: none; stroke-width: 2; stroke: rgb(125, 115, 156);"/><text transform="translate(426.328125, 796)"><tspan fill="rgb(125,115,156)" x="0" y="12" style="font-family: BentonSans; font-weight: 400; font-size: 12px;">64.6%</tspan></text><text transform="translate(1, 814)"><tspan fill="rgb(51,51,51)" x="0" y="12" style="font-family: BentonSans; font-weight: 400; font-size: 12px;">North Dakota</tspan></text><rect width="12.328125" height="2" transform="translate(409.015625, 820)" fill="rgb(125,115,156)" style="fill: rgb(125, 115, 156);"/><path d="M417.6868896484375 816.8431396484375 L 421.6868896484375 820.8431396484375 L 417.6868896484375 824.8431396484375" stroke="rgb(125,115,156)" style="fill: none; stroke-width: 2; stroke: rgb(125, 115, 156);"/><text transform="translate(426.328125, 814)"><tspan fill="rgb(125,115,156)" x="0" y="12" style="font-family: BentonSans; font-weight: 400; font-size: 12px;">64.6%</tspan></text><text transform="translate(1, 832)"><tspan fill="rgb(51,51,51)" x="0" y="12" style="font-family: BentonSans; font-weight: 400; font-size: 12px;">South Carolina</tspan></text><rect width="32.84375" height="2" transform="translate(388.046875, 838)" fill="rgb(125,115,156)" style="fill: rgb(125, 115, 156);"/><path d="M417.2337646484375 834.8431396484375 L 421.2337646484375 838.8431396484375 L 417.2337646484375 842.8431396484375" stroke="rgb(125,115,156)" style="fill: none; stroke-width: 2; stroke: rgb(125, 115, 156);"/><text transform="translate(425.875, 832)"><tspan fill="rgb(125,115,156)" x="0" y="12" style="font-family: BentonSans; font-weight: 400; font-size: 12px;">64.5%</tspan></text><text transform="translate(1, 850)"><tspan fill="rgb(51,51,51)" x="0" y="12" style="font-family: BentonSans; font-weight: 400; font-size: 12px;">Kansas</tspan></text><rect width="19.625" height="2" transform="translate(399.890625, 856)" fill="rgb(125,115,156)" style="fill: rgb(125, 115, 156);"/><path d="M415.8587646484375 852.8431396484375 L 419.8587646484375 856.8431396484375 L 415.8587646484375 860.8431396484375" stroke="rgb(125,115,156)" style="fill: none; stroke-width: 2; stroke: rgb(125, 115, 156);"/><text transform="translate(424.5, 850)"><tspan fill="rgb(125,115,156)" x="0" y="12" style="font-family: BentonSans; font-weight: 400; font-size: 12px;">64.2%</tspan></text><text transform="translate(1, 868)"><tspan fill="rgb(51,51,51)" x="0" y="12" style="font-family: BentonSans; font-weight: 400; font-size: 12px;">Louisiana</tspan></text><rect width="15.0625" height="2" transform="translate(403.09375, 874)" fill="rgb(125,115,156)" style="fill: rgb(125, 115, 156);"/><path d="M414.4993896484375 870.8431396484375 L 418.4993896484375 874.8431396484375 L 414.4993896484375 878.8431396484375" stroke="rgb(125,115,156)" style="fill: none; stroke-width: 2; stroke: rgb(125, 115, 156);"/><text transform="translate(423.140625, 868)"><tspan fill="rgb(125,115,156)" x="0" y="12" style="font-family: BentonSans; font-weight: 400; font-size: 12px;">63.9%</tspan></text><text transform="translate(1, 886)"><tspan fill="rgb(51,51,51)" x="0" y="12" style="font-family: BentonSans; font-weight: 400; font-size: 12px;">Nevada</tspan></text><rect width="28.734375" height="2" transform="translate(388.046875, 892)" fill="rgb(125,115,156)" style="fill: rgb(125, 115, 156);"/><path d="M413.1243896484375 888.8431396484375 L 417.1243896484375 892.8431396484375 L 413.1243896484375 896.8431396484375" stroke="rgb(125,115,156)" style="fill: none; stroke-width: 2; stroke: rgb(125, 115, 156);"/><text transform="translate(421.765625, 886)"><tspan fill="rgb(125,115,156)" x="0" y="12" style="font-family: BentonSans; font-weight: 400; font-size: 12px;">63.6%</tspan></text><text transform="translate(1, 904)"><tspan fill="rgb(51,51,51)" x="0" y="12" style="font-family: BentonSans; font-weight: 400; font-size: 12px;">Alabama</tspan></text><rect width="15.0625" height="2" transform="translate(397.15625, 910)" fill="rgb(125,115,156)" style="fill: rgb(125, 115, 156);"/><path d="M408.5618896484375 906.8431396484375 L 412.5618896484375 910.8431396484375 L 408.5618896484375 914.8431396484375" stroke="rgb(125,115,156)" style="fill: none; stroke-width: 2; stroke: rgb(125, 115, 156);"/><text transform="translate(417.203125, 904)"><tspan fill="rgb(125,115,156)" x="0" y="12" style="font-family: BentonSans; font-weight: 400; font-size: 12px;">62.6%</tspan></text><text transform="translate(1, 922)"><tspan fill="rgb(51,51,51)" x="0" y="12" style="font-family: BentonSans; font-weight: 400; font-size: 12px;">Indiana</tspan></text><rect width="15.96875" height="2" transform="translate(390.78125, 928)" fill="rgb(125,115,156)" style="fill: rgb(125, 115, 156);"/><path d="M403.0931396484375 924.8431396484375 L 407.0931396484375 928.8431396484375 L 403.0931396484375 932.8431396484375" stroke="rgb(125,115,156)" style="fill: none; stroke-width: 2; stroke: rgb(125, 115, 156);"/><text transform="translate(411.734375, 922)"><tspan fill="rgb(125,115,156)" x="0" y="12" style="font-family: BentonSans; font-weight: 400; font-size: 12px;">61.4%</tspan></text><text transform="translate(1, 940)"><tspan fill="rgb(51,51,51)" x="0" y="12" style="font-family: BentonSans; font-weight: 400; font-size: 12px;">New Mexico</tspan></text><rect width="26.453125" height="2" transform="translate(378.46875, 946)" fill="rgb(125,115,156)" style="fill: rgb(125, 115, 156);"/><path d="M401.2650146484375 942.8431396484375 L 405.2650146484375 946.8431396484375 L 401.2650146484375 950.8431396484375" stroke="rgb(125,115,156)" style="fill: none; stroke-width: 2; stroke: rgb(125, 115, 156);"/><text transform="translate(409.90625, 940)"><tspan fill="rgb(125,115,156)" x="0" y="12" style="font-family: BentonSans; font-weight: 400; font-size: 12px;">61.0%</tspan></text><text transform="translate(1, 958)"><tspan fill="rgb(51,51,51)" x="0" y="12" style="font-family: BentonSans; font-weight: 400; font-size: 12px;">Mississippi</tspan></text><rect width="17.796875" height="2" transform="translate(384.390625, 964)" fill="rgb(125,115,156)" style="fill: rgb(125, 115, 156);"/><path d="M398.5306396484375 960.8431396484375 L 402.5306396484375 964.8431396484375 L 398.5306396484375 968.8431396484375" stroke="rgb(125,115,156)" style="fill: none; stroke-width: 2; stroke: rgb(125, 115, 156);"/><text transform="translate(407.171875, 958)"><tspan fill="rgb(125,115,156)" x="0" y="12" style="font-family: BentonSans; font-weight: 400; font-size: 12px;">60.4%</tspan></text><text transform="translate(1, 976)"><tspan fill="rgb(51,51,51)" x="0" y="12" style="font-family: BentonSans; font-weight: 400; font-size: 12px;">Texas</tspan></text><rect width="40.140625" height="2" transform="translate(361.140625, 982)" fill="rgb(125,115,156)" style="fill: rgb(125, 115, 156);"/><path d="M397.6243896484375 978.8431396484375 L 401.6243896484375 982.8431396484375 L 397.6243896484375 986.8431396484375" stroke="rgb(125,115,156)" style="fill: none; stroke-width: 2; stroke: rgb(125, 115, 156);"/><text transform="translate(406.265625, 976)"><tspan fill="rgb(125,115,156)" x="0" y="12" style="font-family: BentonSans; font-weight: 400; font-size: 12px;">60.2%</tspan></text><text transform="translate(1, 994)"><tspan fill="rgb(51,51,51)" x="0" y="12" style="font-family: BentonSans; font-weight: 400; font-size: 12px;">Tennessee</tspan></text><rect width="35.125" height="2" transform="translate(363.875, 1000)" fill="rgb(125,115,156)" style="fill: rgb(125, 115, 156);"/><path d="M395.3431396484375 996.8431396484375 L 399.3431396484375 1000.8431396484375 L 395.3431396484375 1004.8431396484375" stroke="rgb(125,115,156)" style="fill: none; stroke-width: 2; stroke: rgb(125, 115, 156);"/><text transform="translate(403.984375, 994)"><tspan fill="rgb(125,115,156)" x="0" y="12" style="font-family: BentonSans; font-weight: 400; font-size: 12px;">59.7%</tspan></text><text transform="translate(1, 1012)"><tspan fill="rgb(51,51,51)" x="0" y="12" style="font-family: BentonSans; font-weight: 400; font-size: 12px;">Hawaii</tspan></text><rect width="66.125" height="2" transform="translate(322.84375, 1018)" fill="rgb(125,115,156)" style="fill: rgb(125, 115, 156);"/><path d="M385.3118896484375 1014.8431396484375 L 389.3118896484375 1018.8431396484375 L 385.3118896484375 1022.8431396484375" stroke="rgb(125,115,156)" style="fill: none; stroke-width: 2; stroke: rgb(125, 115, 156);"/><text transform="translate(393.953125, 1012)"><tspan fill="rgb(125,115,156)" x="0" y="12" style="font-family: BentonSans; font-weight: 400; font-size: 12px;">57.5%</tspan></text><text transform="translate(1, 1030)"><tspan fill="rgb(51,51,51)" x="0" y="12" style="font-family: BentonSans; font-weight: 400; font-size: 12px;">West Virginia</tspan></text><rect width="28.28125" height="2" transform="translate(358.40625, 1036)" fill="rgb(125,115,156)" style="fill: rgb(125, 115, 156);"/><path d="M383.0306396484375 1032.8431396484375 L 387.0306396484375 1036.8431396484375 L 383.0306396484375 1040.8431396484375" stroke="rgb(125,115,156)" style="fill: none; stroke-width: 2; stroke: rgb(125, 115, 156);"/><text transform="translate(391.671875, 1030)"><tspan fill="rgb(125,115,156)" x="0" y="12" style="font-family: BentonSans; font-weight: 400; font-size: 12px;">57.0%</tspan></text><text transform="translate(1, 1048)"><tspan fill="rgb(51,51,51)" x="0" y="12" style="font-family: BentonSans; font-weight: 400; font-size: 12px;">Arkansas</tspan></text><rect width="10.953125" height="2" transform="translate(368.890625, 1054)" fill="rgb(125,115,156)" style="fill: rgb(125, 115, 156);"/><path d="M376.1868896484375 1050.8431396484375 L 380.1868896484375 1054.8431396484375 L 376.1868896484375 1058.8431396484375" stroke="rgb(125,115,156)" style="fill: none; stroke-width: 2; stroke: rgb(125, 115, 156);"/><text transform="translate(384.828125, 1048)"><tspan fill="rgb(125,115,156)" x="0" y="12" style="font-family: BentonSans; font-weight: 400; font-size: 12px;">55.5%</tspan></text><text transform="translate(1, 1066)"><tspan fill="rgb(51,51,51)" x="0" y="12" style="font-family: BentonSans; font-weight: 400; font-size: 12px;">Oklahoma</tspan></text><rect width="12.328125" height="2" transform="translate(365.25, 1072)" fill="rgb(125,115,156)" style="fill: rgb(125, 115, 156);"/><path d="M373.9212646484375 1068.8431396484375 L 377.9212646484375 1072.8431396484375 L 373.9212646484375 1076.8431396484375" stroke="rgb(125,115,156)" style="fill: none; stroke-width: 2; stroke: rgb(125, 115, 156);"/><text transform="translate(382.5625, 1066)"><tspan fill="rgb(125,115,156)" x="0" y="12" style="font-family: BentonSans; font-weight: 400; font-size: 12px;">55.0%</tspan></text><text transform="translate(467.84375, 129)" style="text-anchor: end;"><tspan fill="rgb(51,51,51)" x="0" y="12" style="font-family: BentonSans; font-weight: 400; font-size: 12px;">2016</tspan></text><text transform="translate(468.84375, 141)" style="text-anchor: end;"><tspan fill="rgb(153,153,153)" x="0" y="8" style="font-family: Arial; font-weight: 400; font-size: 8px;">|</tspan></text><text transform="translate(491.078125, 129)"><tspan fill="rgb(51,51,51)" x="0" y="12" style="font-family: BentonSans; font-weight: 400; font-size: 12px;">2020</tspan></text><text transform="translate(490.078125, 141)"><tspan fill="rgb(153,153,153)" x="0" y="8" style="font-family: Arial; font-weight: 400; font-size: 8px;">|</tspan></text></g><g id="after-body-svg"/><g id="above-footer-svg"/><g id="footer-svg"><g id="footer-inner-svg"><g id="footer-main-svg"><text transform="translate(0, 1124)"><tspan fill="rgb(136,136,136)" x="0" y="11" style="font-family: BentonSans; font-weight: 400; font-size: 11px;">Chart:</tspan><tspan fill="rgb(136,136,136)" y="11" style="font-family: BentonSans; font-weight: 400; font-size: 11px;">​ ​</tspan><tspan fill="rgb(136,136,136)" y="11" style="font-family: BentonSans; font-weight: 400; font-size: 11px;">Jeff Hargarten, Star Tribune</tspan><tspan fill="rgb(136,136,136)" y="11" style="font-family: BentonSans; font-weight: 400; font-size: 11px;">​ •</tspan><tspan fill="rgb(136,136,136)" y="11" style="font-family: BentonSans; font-weight: 400; font-size: 11px;">​ ​</tspan><tspan fill="rgb(136,136,136)" y="11" style="font-family: BentonSans; font-weight: 400; font-size: 11px;">Source</tspan><tspan fill="rgb(136,136,136)" y="11" style="font-family: BentonSans; font-weight: 400; font-size: 11px;">:</tspan><tspan fill="rgb(136,136,136)" y="11" style="font-family: BentonSans; font-weight: 400; font-size: 11px;">​ ​</tspan><tspan fill="rgb(136,136,136)" y="11" style="font-family: BentonSans; font-weight: 400; font-size: 11px;">United States Elections Project</tspan></text></g></g></g><g id="below-footer-svg"/></g></svg>