<svg xmlns:xlink="http://www.w3.org/1999/xlink" xmlns="http://www.w3.org/2000/svg" id="exportSvg" width="600" height="400"><defs/><g><g id="header-svg"><g id="text-svg"><text transform="translate(0, -2)" fill="rgb(51,51,51)" style="font-family: BentonSans; font-weight: 700; font-size: 19px;"><tspan x="0" dy="19">Minnesota's voter turnout broke records</tspan></text></g><g id="text-svg"><text transform="translate(0, 31)" fill="rgb(51,51,51)" style="font-family: BentonSans; font-weight: 400; font-size: 15px;"><tspan x="0" dy="15">Turnout among eligible voters in Minnesota during presidential elections reached its </tspan></text><text transform="translate(0, 51)" fill="rgb(51,51,51)" style="font-family: BentonSans; font-weight: 400; font-size: 15px;"><tspan x="0" dy="15">highest point since the 1950s. </tspan></text></g></g><g id="chart-svg"><g id="group-svg" clip-path="url(#rect-mask-group-E2PBeaId-yZHpPAyVMLqD)" transform="translate(0.00000, 80.00000)"><clipPath id="rect-mask-group-E2PBeaId-yZHpPAyVMLqD"><rect x="0" y="0" width="600" height="279"/></clipPath><g id="group-svg" transform="translate(38, 34)"><g id="x-svg ticks-svg" transform="translate(0, 224)"><g transform="translate(72.91140789056882, 0)"><line x1="0" x2="0" y1="0" y2="-5" style="fill: none; stroke-width: 1; stroke-linejoin: miter; stroke-linecap: butt; stroke: rgb(51, 51, 51);"/><text transform="translate(-13.50000, -12.00000) translate(13.5, 16)" fill="rgb(133, 133, 133)" style="text-anchor: middle; font-family: BentonSans; font-weight: 400; font-size: 12px;"><tspan x="0" dy="12">1960</tspan></text></g><g transform="translate(151.99476775744105, 0)"><line x1="0" x2="0" y1="0" y2="-5" style="fill: none; stroke-width: 1; stroke-linejoin: miter; stroke-linecap: butt; stroke: rgb(51, 51, 51);"/><text transform="translate(-13.50000, -12.00000) translate(13.5, 16)" fill="rgb(133, 133, 133)" style="text-anchor: middle; font-family: BentonSans; font-weight: 400; font-size: 12px;"><tspan x="0" dy="12">1970</tspan></text></g><g transform="translate(231.05647874397744, 0)"><line x1="0" x2="0" y1="0" y2="-5" style="fill: none; stroke-width: 1; stroke-linejoin: miter; stroke-linecap: butt; stroke: rgb(51, 51, 51);"/><text transform="translate(-13.49999, -12.00000) translate(13.499992370605469, 16)" fill="rgb(133, 133, 133)" style="text-anchor: middle; font-family: BentonSans; font-weight: 400; font-size: 12px;"><tspan x="0" dy="12">1980</tspan></text></g><g transform="translate(310.1398386108496, 0)"><line x1="0" x2="0" y1="0" y2="-5" style="fill: none; stroke-width: 1; stroke-linejoin: miter; stroke-linecap: butt; stroke: rgb(51, 51, 51);"/><text transform="translate(-13.50000, -12.00000) translate(13.5, 16)" fill="rgb(133, 133, 133)" style="text-anchor: middle; font-family: BentonSans; font-weight: 400; font-size: 12px;"><tspan x="0" dy="12">1990</tspan></text></g><g transform="translate(389.201549597386, 0)"><line x1="0" x2="0" y1="0" y2="-5" style="fill: none; stroke-width: 1; stroke-linejoin: miter; stroke-linecap: butt; stroke: rgb(51, 51, 51);"/><text transform="translate(-15.50000, -12.00000) translate(15.5, 16)" fill="rgb(133, 133, 133)" style="text-anchor: middle; font-family: BentonSans; font-weight: 400; font-size: 12px;"><tspan x="0" dy="12">2000</tspan></text></g><g transform="translate(468.28490946425825, 0)"><line x1="0" x2="0" y1="0" y2="-5" style="fill: none; stroke-width: 1; stroke-linejoin: miter; stroke-linecap: butt; stroke: rgb(51, 51, 51);"/><text transform="translate(-14.00000, -12.00000) translate(14, 16)" fill="rgb(133, 133, 133)" style="text-anchor: middle; font-family: BentonSans; font-weight: 400; font-size: 12px;"><tspan x="0" dy="12">2010</tspan></text></g><g transform="translate(547.3466204507946, 0)"><line x1="0" x2="0" y1="0" y2="-5" style="fill: none; stroke-width: 1; stroke-linejoin: miter; stroke-linecap: butt; stroke: rgb(51, 51, 51);"/><text transform="translate(-15.00000, -12.00000) translate(15, 16)" fill="rgb(133, 133, 133)" style="text-anchor: middle; font-family: BentonSans; font-weight: 400; font-size: 12px;"><tspan x="0" dy="12">2020</tspan></text></g></g><g id="x-svg axis-svg" transform="translate(0, 219)"><line x1="0" x2="557" y1="0" y2="0" style="fill: none; stroke-width: 1; stroke-linejoin: miter; stroke-linecap: butt; stroke: rgb(51, 51, 51);"/></g><g id="y-grid-svg"><g transform="translate(0, 175.2)"><line x1="0" x2="557" y1="0" y2="0" style="fill: none; stroke-width: 1; stroke-linejoin: miter; stroke-linecap: butt; stroke: rgb(238, 238, 238);"/><text transform="translate(-4, 4) translate(-27.00000, -12.00000) translate(27, 0)" fill="rgb(133, 133, 133)" style="text-anchor: end; font-family: BentonSans; font-weight: 400; font-size: 12px;"><tspan x="0" dy="12">20%</tspan></text></g><g transform="translate(0, 131.39999999999998)"><line x1="0" x2="557" y1="0" y2="0" style="fill: none; stroke-width: 1; stroke-linejoin: miter; stroke-linecap: butt; stroke: rgb(238, 238, 238);"/><text transform="translate(-4, 4) translate(-27.00000, -12.00000) translate(27, 0)" fill="rgb(133, 133, 133)" style="text-anchor: end; font-family: BentonSans; font-weight: 400; font-size: 12px;"><tspan x="0" dy="12">40%</tspan></text></g><g transform="translate(0, 87.6)"><line x1="0" x2="557" y1="0" y2="0" style="fill: none; stroke-width: 1; stroke-linejoin: miter; stroke-linecap: butt; stroke: rgb(238, 238, 238);"/><text transform="translate(-4, 4) translate(-27.00000, -12.00000) translate(27, 0)" fill="rgb(133, 133, 133)" style="text-anchor: end; font-family: BentonSans; font-weight: 400; font-size: 12px;"><tspan x="0" dy="12">60%</tspan></text></g><g transform="translate(0, 43.79999999999998)"><line x1="0" x2="557" y1="0" y2="0" style="fill: none; stroke-width: 1; stroke-linejoin: miter; stroke-linecap: butt; stroke: rgb(238, 238, 238);"/><text transform="translate(-4, 4) translate(-27.00000, -12.00000) translate(27, 0)" fill="rgb(133, 133, 133)" style="text-anchor: end; font-family: BentonSans; font-weight: 400; font-size: 12px;"><tspan x="0" dy="12">80%</tspan></text></g><g transform="translate(0, 0)"><line x1="0" x2="557" y1="0" y2="0" style="fill: none; stroke-width: 1; stroke-linejoin: miter; stroke-linecap: butt; stroke: rgb(238, 238, 238);"/><text transform="translate(-4, 4) translate(-33.00000, -12.00000) translate(33, 0)" fill="rgb(133, 133, 133)" style="text-anchor: end; font-family: BentonSans; font-weight: 400; font-size: 12px;"><tspan x="0" dy="12">100%</tspan></text></g></g><g id="lines-svg"><g id="turnout-svg"><path d="M9.65337954920538,50.370000000000005L41.282393719887104,37.23000000000002L72.91140789056882,45.98999999999998L104.54042206125054,52.56L136.16943623193228,56.94L167.79845040261398,65.70000000000002L199.4274645732957,59.129999999999995L231.05647874397744,61.31999999999999L262.6854929146591,63.51000000000002L294.3145070853409,67.89000000000001L325.9435212560226,56.94L357.5725354267043,72.26999999999998L389.201549597386,65.70000000000002L420.83056376806775,45.98999999999998L452.4595779387494,48.18000000000001L484.0885921094312,52.56L515.7176062801129,54.75L547.3466204507946,45.98999999999998" stroke="rgb(86,77,116)" id="turnout" style="mix-blend-mode: normal; fill: none; stroke-width: 2; stroke-linejoin: round; stroke-linecap: round; stroke: rgb(86, 77, 116);"/></g></g><g id="line-symbols-svg"><path d="M -1,0 a 1,1 0 1,0 2,0 a 1,1 0 1,0 -2,0 Z" id="turnout" transform="translate(547.3466204507946, 45.98999999999998) scale(3.5)" style="mix-blend-mode: normal; fill: rgb(86, 77, 116);"/></g></g></g><g id="turnout-svg" clip-path="url(#rect-mask-turnout-MHBGKVkewF5ZcDHvvPiQC)" transform="translate(0.00000, 80.00000)"><clipPath id="rect-mask-turnout-MHBGKVkewF5ZcDHvvPiQC"><rect x="0" y="0" width="16" height="20"/></clipPath><path d="M1,10 L15,10" stroke="rgb(86,77,116)" id="turnout" style="mix-blend-mode: normal; fill: none; stroke-width: 2; stroke-linejoin: round; stroke-linecap: round; stroke: rgb(86, 77, 116);"/></g><g id="turnout-svg"><text transform="translate(20, 83.609375)" fill="rgb(51,51,51)" style="font-family: BentonSans; font-weight: 400; font-size: 12px;"><tspan x="0" dy="12">Voter turnout</tspan></text></g></g><g id="after-body-svg"/><g id="above-footer-svg"/><g id="footer-svg"><g id="footer-inner-svg"><g id="footer-main-svg"><g id="text-svg"><text transform="translate(0, 382)" fill="rgb(136,136,136)" style="font-family: BentonSans; font-weight: 400; font-size: 11px;"><tspan x="0" dy="11">Chart:</tspan></text><text transform="translate(34, 382)" fill="rgb(136,136,136)" style="font-family: BentonSans; font-weight: 400; font-size: 11px;"><tspan x="0" dy="11">Jeff Hargarten, Star Tribune</tspan></text></g><g id="text-svg"><text transform="translate(174, 382)" fill="rgb(136,136,136)" style="font-family: BentonSans; font-weight: 400; font-size: 11px;"><tspan x="0" dy="11">​ •</tspan></text></g><g id="text-svg"><text transform="translate(185, 382)" fill="rgb(136,136,136)" style="font-family: BentonSans; font-weight: 400; font-size: 11px;"><tspan x="0" dy="11">Source:</tspan></text><text transform="translate(226, 382)" fill="rgb(136,136,136)" style="font-family: BentonSans; font-weight: 400; font-size: 11px;"><tspan x="0" dy="11">Minnesota Secretary of State</tspan></text></g></g></g></g><g id="below-footer-svg"/></g></svg>