<svg xmlns:xlink="http://www.w3.org/1999/xlink" xmlns="http://www.w3.org/2000/svg" id="exportSvg" width="600" height="400"><defs/><g><g id="header-svg"><g id="text-svg"><text transform="translate(0, -2)" fill="rgb(51,51,51)" style="font-family: BentonSans; font-weight: 700; font-size: 19px;"><tspan x="0" dy="19">Minnesota's voter turnout was highest since JFK</tspan></text></g><g id="text-svg"><text transform="translate(0, 31)" fill="rgb(51,51,51)" style="font-family: BentonSans; font-weight: 400; font-size: 15px;"><tspan x="0" dy="15">Turnout among eligible voters in Minnesota during presidential elections reached its </tspan></text><text transform="translate(0, 51)" fill="rgb(51,51,51)" style="font-family: BentonSans; font-weight: 400; font-size: 15px;"><tspan x="0" dy="15">highest point since 1960 when John F. Kennedy won the state and the presidency. </tspan></text></g></g><g id="chart-svg"><g id="group-svg" clip-path="url(#rect-mask-group-EzOvKjxfnVBPWlbO_kQi_)" transform="translate(0.00000, 80.00000)"><clipPath id="rect-mask-group-EzOvKjxfnVBPWlbO_kQi_"><rect x="0" y="0" width="600" height="279"/></clipPath><g id="group-svg" transform="translate(49, 34)"><g id="x-svg ticks-svg" transform="translate(0, 224)"><g transform="translate(71.61213884838072, 0)"><line x1="0" x2="0" y1="0" y2="-5" style="fill: none; stroke-width: 1; stroke-linejoin: miter; stroke-linecap: butt; stroke: rgb(51, 51, 51);"/><text transform="translate(-13.50000, -12.00000) translate(13.5, 16)" fill="rgb(133, 133, 133)" style="text-anchor: middle; font-family: BentonSans; font-weight: 400; font-size: 12px;"><tspan x="0" dy="12">1960</tspan></text></g><g transform="translate(149.07961178966067, 0)"><line x1="0" x2="0" y1="0" y2="-5" style="fill: none; stroke-width: 1; stroke-linejoin: miter; stroke-linecap: butt; stroke: rgb(51, 51, 51);"/><text transform="translate(-13.50000, -12.00000) translate(13.5, 16)" fill="rgb(133, 133, 133)" style="text-anchor: middle; font-family: BentonSans; font-weight: 400; font-size: 12px;"><tspan x="0" dy="12">1970</tspan></text></g><g transform="translate(226.52587819578017, 0)"><line x1="0" x2="0" y1="0" y2="-5" style="fill: none; stroke-width: 1; stroke-linejoin: miter; stroke-linecap: butt; stroke: rgb(51, 51, 51);"/><text transform="translate(-13.50000, -12.00000) translate(13.5, 16)" fill="rgb(133, 133, 133)" style="text-anchor: middle; font-family: BentonSans; font-weight: 400; font-size: 12px;"><tspan x="0" dy="12">1980</tspan></text></g><g transform="translate(303.99335113706013, 0)"><line x1="0" x2="0" y1="0" y2="-5" style="fill: none; stroke-width: 1; stroke-linejoin: miter; stroke-linecap: butt; stroke: rgb(51, 51, 51);"/><text transform="translate(-13.50000, -12.00000) translate(13.5, 16)" fill="rgb(133, 133, 133)" style="text-anchor: middle; font-family: BentonSans; font-weight: 400; font-size: 12px;"><tspan x="0" dy="12">1990</tspan></text></g><g transform="translate(381.4396175431796, 0)"><line x1="0" x2="0" y1="0" y2="-5" style="fill: none; stroke-width: 1; stroke-linejoin: miter; stroke-linecap: butt; stroke: rgb(51, 51, 51);"/><text transform="translate(-15.50000, -12.00000) translate(15.5, 16)" fill="rgb(133, 133, 133)" style="text-anchor: middle; font-family: BentonSans; font-weight: 400; font-size: 12px;"><tspan x="0" dy="12">2000</tspan></text></g><g transform="translate(458.90709048445956, 0)"><line x1="0" x2="0" y1="0" y2="-5" style="fill: none; stroke-width: 1; stroke-linejoin: miter; stroke-linecap: butt; stroke: rgb(51, 51, 51);"/><text transform="translate(-14.00000, -12.00000) translate(14, 16)" fill="rgb(133, 133, 133)" style="text-anchor: middle; font-family: BentonSans; font-weight: 400; font-size: 12px;"><tspan x="0" dy="12">2010</tspan></text></g><g transform="translate(536.3533568905791, 0)"><line x1="0" x2="0" y1="0" y2="-5" style="fill: none; stroke-width: 1; stroke-linejoin: miter; stroke-linecap: butt; stroke: rgb(51, 51, 51);"/><text transform="translate(-15.00000, -12.00000) translate(15, 16)" fill="rgb(133, 133, 133)" style="text-anchor: middle; font-family: BentonSans; font-weight: 400; font-size: 12px;"><tspan x="0" dy="12">2020</tspan></text></g></g><g id="x-svg axis-svg" transform="translate(0, 219)"><line x1="0" x2="546" y1="0" y2="0" style="fill: none; stroke-width: 1; stroke-linejoin: miter; stroke-linecap: butt; stroke: rgb(51, 51, 51);"/></g><g id="y-grid-svg"><g transform="translate(0, 175.2)"><line x1="0" x2="546" y1="0" y2="0" style="fill: none; stroke-width: 1; stroke-linejoin: miter; stroke-linecap: butt; stroke: rgb(238, 238, 238);"/><text transform="translate(-4, 4) translate(-38.00000, -12.00000) translate(38, 0)" fill="rgb(133, 133, 133)" style="text-anchor: end; font-family: BentonSans; font-weight: 400; font-size: 12px;"><tspan x="0" dy="12">20.0%</tspan></text></g><g transform="translate(0, 131.39999999999998)"><line x1="0" x2="546" y1="0" y2="0" style="fill: none; stroke-width: 1; stroke-linejoin: miter; stroke-linecap: butt; stroke: rgb(238, 238, 238);"/><text transform="translate(-4, 4) translate(-38.00000, -12.00000) translate(38, 0)" fill="rgb(133, 133, 133)" style="text-anchor: end; font-family: BentonSans; font-weight: 400; font-size: 12px;"><tspan x="0" dy="12">40.0%</tspan></text></g><g transform="translate(0, 87.6)"><line x1="0" x2="546" y1="0" y2="0" style="fill: none; stroke-width: 1; stroke-linejoin: miter; stroke-linecap: butt; stroke: rgb(238, 238, 238);"/><text transform="translate(-4, 4) translate(-38.00000, -12.00000) translate(38, 0)" fill="rgb(133, 133, 133)" style="text-anchor: end; font-family: BentonSans; font-weight: 400; font-size: 12px;"><tspan x="0" dy="12">60.0%</tspan></text></g><g transform="translate(0, 43.79999999999998)"><line x1="0" x2="546" y1="0" y2="0" style="fill: none; stroke-width: 1; stroke-linejoin: miter; stroke-linecap: butt; stroke: rgb(238, 238, 238);"/><text transform="translate(-4, 4) translate(-38.00000, -12.00000) translate(38, 0)" fill="rgb(133, 133, 133)" style="text-anchor: end; font-family: BentonSans; font-weight: 400; font-size: 12px;"><tspan x="0" dy="12">80.0%</tspan></text></g><g transform="translate(0, 0)"><line x1="0" x2="546" y1="0" y2="0" style="fill: none; stroke-width: 1; stroke-linejoin: miter; stroke-linecap: butt; stroke: rgb(238, 238, 238);"/><text transform="translate(-4, 4) translate(-44.00000, -12.00000) translate(44, 0)" fill="rgb(133, 133, 133)" style="text-anchor: end; font-family: BentonSans; font-weight: 400; font-size: 12px;"><tspan x="0" dy="12">100.0%</tspan></text></g></g><g id="lines-svg"><g id="turnout-svg"><path d="M9.646643109420948,49.93199999999999L40.62939097890084,36.79199999999997L71.61213884838072,45.114000000000004L102.5948867178606,51.90299999999999L133.5776345873405,56.94L164.56038245682038,65.043L195.54313032630026,59.129999999999995L226.52587819578017,61.101L257.50862606526005,63.728999999999985L288.49137393473995,68.328L319.47412180421986,57.15899999999999L350.4568696736997,73.14600000000002L381.4396175431796,65.48100000000002L412.42236541265953,46.428000000000026L443.4051132821394,47.96100000000001L474.3878611516193,51.684L505.3706090210992,55.40700000000001L536.3533568905791,45.114000000000004" stroke="rgb(86,77,116)" id="turnout" style="mix-blend-mode: normal; fill: none; stroke-width: 2; stroke-linejoin: round; stroke-linecap: round; stroke: rgb(86, 77, 116);"/></g></g><g id="line-symbols-svg"><path d="M -1,0 a 1,1 0 1,0 2,0 a 1,1 0 1,0 -2,0 Z" id="turnout" transform="translate(9.646643109420948, 49.93199999999999) scale(3.5)" style="mix-blend-mode: normal; fill: rgb(86, 77, 116);"/><path d="M -1,0 a 1,1 0 1,0 2,0 a 1,1 0 1,0 -2,0 Z" id="turnout" transform="translate(40.62939097890084, 36.79199999999997) scale(3.5)" style="mix-blend-mode: normal; fill: rgb(86, 77, 116);"/><path d="M -1,0 a 1,1 0 1,0 2,0 a 1,1 0 1,0 -2,0 Z" id="turnout" transform="translate(71.61213884838072, 45.114000000000004) scale(3.5)" style="mix-blend-mode: normal; fill: rgb(86, 77, 116);"/><path d="M -1,0 a 1,1 0 1,0 2,0 a 1,1 0 1,0 -2,0 Z" id="turnout" transform="translate(102.5948867178606, 51.90299999999999) scale(3.5)" style="mix-blend-mode: normal; fill: rgb(86, 77, 116);"/><path d="M -1,0 a 1,1 0 1,0 2,0 a 1,1 0 1,0 -2,0 Z" id="turnout" transform="translate(133.5776345873405, 56.94) scale(3.5)" style="mix-blend-mode: normal; fill: rgb(86, 77, 116);"/><path d="M -1,0 a 1,1 0 1,0 2,0 a 1,1 0 1,0 -2,0 Z" id="turnout" transform="translate(164.56038245682038, 65.043) scale(3.5)" style="mix-blend-mode: normal; fill: rgb(86, 77, 116);"/><path d="M -1,0 a 1,1 0 1,0 2,0 a 1,1 0 1,0 -2,0 Z" id="turnout" transform="translate(195.54313032630026, 59.129999999999995) scale(3.5)" style="mix-blend-mode: normal; fill: rgb(86, 77, 116);"/><path d="M -1,0 a 1,1 0 1,0 2,0 a 1,1 0 1,0 -2,0 Z" id="turnout" transform="translate(226.52587819578017, 61.101) scale(3.5)" style="mix-blend-mode: normal; fill: rgb(86, 77, 116);"/><path d="M -1,0 a 1,1 0 1,0 2,0 a 1,1 0 1,0 -2,0 Z" id="turnout" transform="translate(257.50862606526005, 63.728999999999985) scale(3.5)" style="mix-blend-mode: normal; fill: rgb(86, 77, 116);"/><path d="M -1,0 a 1,1 0 1,0 2,0 a 1,1 0 1,0 -2,0 Z" id="turnout" transform="translate(288.49137393473995, 68.328) scale(3.5)" style="mix-blend-mode: normal; fill: rgb(86, 77, 116);"/><path d="M -1,0 a 1,1 0 1,0 2,0 a 1,1 0 1,0 -2,0 Z" id="turnout" transform="translate(319.47412180421986, 57.15899999999999) scale(3.5)" style="mix-blend-mode: normal; fill: rgb(86, 77, 116);"/><path d="M -1,0 a 1,1 0 1,0 2,0 a 1,1 0 1,0 -2,0 Z" id="turnout" transform="translate(350.4568696736997, 73.14600000000002) scale(3.5)" style="mix-blend-mode: normal; fill: rgb(86, 77, 116);"/><path d="M -1,0 a 1,1 0 1,0 2,0 a 1,1 0 1,0 -2,0 Z" id="turnout" transform="translate(381.4396175431796, 65.48100000000002) scale(3.5)" style="mix-blend-mode: normal; fill: rgb(86, 77, 116);"/><path d="M -1,0 a 1,1 0 1,0 2,0 a 1,1 0 1,0 -2,0 Z" id="turnout" transform="translate(412.42236541265953, 46.428000000000026) scale(3.5)" style="mix-blend-mode: normal; fill: rgb(86, 77, 116);"/><path d="M -1,0 a 1,1 0 1,0 2,0 a 1,1 0 1,0 -2,0 Z" id="turnout" transform="translate(443.4051132821394, 47.96100000000001) scale(3.5)" style="mix-blend-mode: normal; fill: rgb(86, 77, 116);"/><path d="M -1,0 a 1,1 0 1,0 2,0 a 1,1 0 1,0 -2,0 Z" id="turnout" transform="translate(474.3878611516193, 51.684) scale(3.5)" style="mix-blend-mode: normal; fill: rgb(86, 77, 116);"/><path d="M -1,0 a 1,1 0 1,0 2,0 a 1,1 0 1,0 -2,0 Z" id="turnout" transform="translate(505.3706090210992, 55.40700000000001) scale(3.5)" style="mix-blend-mode: normal; fill: rgb(86, 77, 116);"/><path d="M -1,0 a 1,1 0 1,0 2,0 a 1,1 0 1,0 -2,0 Z" id="turnout" transform="translate(536.3533568905791, 45.114000000000004) scale(3.5)" style="mix-blend-mode: normal; fill: rgb(86, 77, 116);"/></g></g></g><g id="turnout-svg" clip-path="url(#rect-mask-turnout-riF0yaWl1RxxlqjIStajq)" transform="translate(0.00000, 80.00000)"><clipPath id="rect-mask-turnout-riF0yaWl1RxxlqjIStajq"><rect x="0" y="0" width="16" height="20"/></clipPath><path d="M1,10 L15,10" stroke="rgb(86,77,116)" id="turnout" style="mix-blend-mode: normal; fill: none; stroke-width: 2; stroke-linejoin: round; stroke-linecap: round; stroke: rgb(86, 77, 116);"/></g><g id="turnout-svg"><text transform="translate(20, 83.609375)" fill="rgb(51,51,51)" style="font-family: BentonSans; font-weight: 400; font-size: 12px;"><tspan x="0" dy="12">Voter turnout</tspan></text></g><g id="svelte-1chy5y9-svg" transform="translate(90.00000, 151.00000)"><g id="callout-line-svg"><path d="M 0,58 L 0,8" stroke="rgb(51,51,51)" style="mix-blend-mode: normal; fill: none; stroke-width: 1; stroke-linejoin: miter; stroke-linecap: butt; stroke: rgb(51, 51, 51);"/><path d="M-4.75,-3.75 L 0,0 L -4.75,3.75" stroke="rgb(51,51,51)" transform="translate(0, 8) rotate(-90.00000250447815) scale(1)" style="mix-blend-mode: normal; fill: none; stroke-width: 1; stroke-linejoin: miter; stroke-linecap: butt; stroke: rgb(51, 51, 51);"/></g></g><g id="svelte-1chy5y9-svg" transform="translate(121.00000, 158.00000)"><g id="callout-line-svg"><path d="M 69,69.00000000000001 L 5.65685424949238,5.656854249492381" stroke="rgb(51,51,51)" style="mix-blend-mode: normal; fill: none; stroke-width: 1; stroke-linejoin: miter; stroke-linecap: butt; stroke: rgb(51, 51, 51);"/><path d="M-4.75,-3.75 L 0,0 L -4.75,3.75" stroke="rgb(51,51,51)" transform="translate(5.656854152679443, 5.656854152679443) rotate(-135) scale(1)" style="mix-blend-mode: normal; fill: none; stroke-width: 1; stroke-linejoin: miter; stroke-linecap: butt; stroke: rgb(51, 51, 51);"/></g></g><g id="svelte-1chy5y9-svg" transform="translate(585.00000, 159.00000)"><g id="callout-line-svg"><path d="M 0,37 L 0,8" stroke="rgb(51,51,51)" style="mix-blend-mode: normal; fill: none; stroke-width: 1; stroke-linejoin: miter; stroke-linecap: butt; stroke: rgb(51, 51, 51);"/><path d="M-4.75,-3.75 L 0,0 L -4.75,3.75" stroke="rgb(51,51,51)" transform="translate(0, 8) rotate(-90.00000250447815) scale(1)" style="mix-blend-mode: normal; fill: none; stroke-width: 1; stroke-linejoin: miter; stroke-linecap: butt; stroke: rgb(51, 51, 51);"/></g></g><g id="text-svg"><text transform="translate(87, 226)" fill="rgb(51,51,51)" style="font-family: BentonSans; font-weight: 400; font-size: 11px;"><tspan x="0" dy="11">83% turnout for </tspan></text><text transform="translate(87, 239)" fill="rgb(51,51,51)" style="font-family: BentonSans; font-weight: 400; font-size: 11px;"><tspan x="0" dy="11">Eisenhower's </tspan></text><text transform="translate(87, 252)" fill="rgb(51,51,51)" style="font-family: BentonSans; font-weight: 400; font-size: 11px;"><tspan x="0" dy="11">reelection</tspan></text></g><g id="text-svg"><text transform="translate(194, 229)" fill="rgb(51,51,51)" style="font-family: BentonSans; font-weight: 400; font-size: 11px;"><tspan x="0" dy="11">​   79.4% turnout for    </tspan></text><text transform="translate(194, 242)" fill="rgb(51,51,51)" style="font-family: BentonSans; font-weight: 400; font-size: 11px;"><tspan x="0" dy="11">​ Kennedy's election</tspan></text></g><g id="text-svg"><text transform="translate(517, 213)" fill="rgb(51,51,51)" style="font-family: BentonSans; font-weight: 400; font-size: 11px;"><tspan x="0" dy="11">79.4% turnout </tspan></text><text transform="translate(517, 226)" fill="rgb(51,51,51)" style="font-family: BentonSans; font-weight: 400; font-size: 11px;"><tspan x="0" dy="11">this year</tspan></text></g></g><g id="after-body-svg"/><g id="above-footer-svg"/><g id="footer-svg"><g id="footer-inner-svg"><g id="footer-main-svg"><g id="text-svg"><text transform="translate(0, 382)" fill="rgb(136,136,136)" style="font-family: BentonSans; font-weight: 400; font-size: 11px;"><tspan x="0" dy="11">Chart:</tspan></text><text transform="translate(34, 382)" fill="rgb(136,136,136)" style="font-family: BentonSans; font-weight: 400; font-size: 11px;"><tspan x="0" dy="11">Jeff Hargarten, Star Tribune</tspan></text></g><g id="text-svg"><text transform="translate(174, 382)" fill="rgb(136,136,136)" style="font-family: BentonSans; font-weight: 400; font-size: 11px;"><tspan x="0" dy="11">​ •</tspan></text></g><g id="text-svg"><text transform="translate(185, 382)" fill="rgb(136,136,136)" style="font-family: BentonSans; font-weight: 400; font-size: 11px;"><tspan x="0" dy="11">Source:</tspan></text><text transform="translate(226, 382)" fill="rgb(136,136,136)" style="font-family: BentonSans; font-weight: 400; font-size: 11px;"><tspan x="0" dy="11">Minnesota Secretary of State</tspan></text></g></g></g></g><g id="below-footer-svg"/></g></svg>