<svg xmlns:xlink="http://www.w3.org/1999/xlink" xmlns="http://www.w3.org/2000/svg" id="exportSvg" width="600" height="400"><defs/><g><g id="header-svg"><text transform="translate(0, 0)"><tspan fill="rgb(51,51,51)" x="0" y="17" style="font-family: BentonSans; font-weight: 700; font-size: 19px;">Minnesota's voter turnout was highest since JFK and ​</tspan><tspan fill="rgb(51,51,51)" x="0" y="37" style="font-family: BentonSans; font-weight: 700; font-size: 19px;">Eisenhower</tspan></text><text transform="translate(0, 50)"><tspan fill="rgb(51,51,51)" x="0" y="16" style="font-family: BentonSans; font-weight: 400; font-size: 15px;">Turnout among eligible voters in Minnesota during presidential election years ​</tspan><tspan fill="rgb(51,51,51)" x="0" y="36" style="font-family: BentonSans; font-weight: 400; font-size: 15px;">reached its highest point since similar rates in 1960 when John F. Kennedy won the ​</tspan><tspan fill="rgb(51,51,51)" x="0" y="56" style="font-family: BentonSans; font-weight: 400; font-size: 15px;">state and the presidency, and prior to that, Dwight D. Eisenhower's reelection. ​</tspan></text></g><g id="chart-svg"><g id="group-svg" clip-path="url(#rect-mask-group-ViWynq-NdNrq050tnwZGP)" transform="translate(0.00000, 120.00000)"><clipPath id="rect-mask-group-ViWynq-NdNrq050tnwZGP"><rect x="0" y="0" width="600" height="239"/></clipPath><g id="group-svg" transform="translate(49, 34)"><g id="x-svg ticks-svg" transform="translate(0, 184)"><g transform="translate(71.61213884838072, 0)"><line x1="0" x2="0" y1="0" y2="-5" style="fill: none; stroke-width: 1; stroke-linejoin: miter; stroke-linecap: butt; stroke: rgb(51, 51, 51);"/><text transform="translate(-13.50000, -12.00000) translate(13.5, 16)" style="text-anchor: middle;"><tspan fill="rgb(133,133,133)" style="font-family: BentonSans; font-weight: 400; font-size: 12px;" x="0" y="12">1960</tspan></text></g><g transform="translate(149.07961178966067, 0)"><line x1="0" x2="0" y1="0" y2="-5" style="fill: none; stroke-width: 1; stroke-linejoin: miter; stroke-linecap: butt; stroke: rgb(51, 51, 51);"/><text transform="translate(-13.50000, -12.00000) translate(13.5, 16)" style="text-anchor: middle;"><tspan fill="rgb(133,133,133)" style="font-family: BentonSans; font-weight: 400; font-size: 12px;" x="0" y="12">1970</tspan></text></g><g transform="translate(226.52587819578017, 0)"><line x1="0" x2="0" y1="0" y2="-5" style="fill: none; stroke-width: 1; stroke-linejoin: miter; stroke-linecap: butt; stroke: rgb(51, 51, 51);"/><text transform="translate(-13.50000, -12.00000) translate(13.5, 16)" style="text-anchor: middle;"><tspan fill="rgb(133,133,133)" style="font-family: BentonSans; font-weight: 400; font-size: 12px;" x="0" y="12">1980</tspan></text></g><g transform="translate(303.99335113706013, 0)"><line x1="0" x2="0" y1="0" y2="-5" style="fill: none; stroke-width: 1; stroke-linejoin: miter; stroke-linecap: butt; stroke: rgb(51, 51, 51);"/><text transform="translate(-13.50000, -12.00000) translate(13.5, 16)" style="text-anchor: middle;"><tspan fill="rgb(133,133,133)" style="font-family: BentonSans; font-weight: 400; font-size: 12px;" x="0" y="12">1990</tspan></text></g><g transform="translate(381.4396175431796, 0)"><line x1="0" x2="0" y1="0" y2="-5" style="fill: none; stroke-width: 1; stroke-linejoin: miter; stroke-linecap: butt; stroke: rgb(51, 51, 51);"/><text transform="translate(-15.50000, -12.00000) translate(15.5, 16)" style="text-anchor: middle;"><tspan fill="rgb(133,133,133)" style="font-family: BentonSans; font-weight: 400; font-size: 12px;" x="0" y="12">2000</tspan></text></g><g transform="translate(458.90709048445956, 0)"><line x1="0" x2="0" y1="0" y2="-5" style="fill: none; stroke-width: 1; stroke-linejoin: miter; stroke-linecap: butt; stroke: rgb(51, 51, 51);"/><text transform="translate(-14.00000, -12.00000) translate(14, 16)" style="text-anchor: middle;"><tspan fill="rgb(133,133,133)" style="font-family: BentonSans; font-weight: 400; font-size: 12px;" x="0" y="12">2010</tspan></text></g><g transform="translate(536.3533568905791, 0)"><line x1="0" x2="0" y1="0" y2="-5" style="fill: none; stroke-width: 1; stroke-linejoin: miter; stroke-linecap: butt; stroke: rgb(51, 51, 51);"/><text transform="translate(-15.00000, -12.00000) translate(15, 16)" style="text-anchor: middle;"><tspan fill="rgb(133,133,133)" style="font-family: BentonSans; font-weight: 400; font-size: 12px;" x="0" y="12">2020</tspan></text></g></g><g id="x-svg axis-svg" transform="translate(0, 179)"><line x1="0" x2="546" y1="0" y2="0" style="fill: none; stroke-width: 1; stroke-linejoin: miter; stroke-linecap: butt; stroke: rgb(51, 51, 51);"/></g><g id="y-grid-svg"><g transform="translate(0, 143.2)"><line x1="0" x2="546" y1="0" y2="0" style="fill: none; stroke-width: 1; stroke-linejoin: miter; stroke-linecap: butt; stroke: rgb(238, 238, 238);"/><text transform="translate(-4, 4) translate(-38.00000, -12.00000) translate(38, 0)" style="text-anchor: end;"><tspan fill="rgb(133,133,133)" style="font-family: BentonSans; font-weight: 400; font-size: 12px;" x="0" y="12">20.0%</tspan></text></g><g transform="translate(0, 107.39999999999999)"><line x1="0" x2="546" y1="0" y2="0" style="fill: none; stroke-width: 1; stroke-linejoin: miter; stroke-linecap: butt; stroke: rgb(238, 238, 238);"/><text transform="translate(-4, 4) translate(-38.00000, -12.00000) translate(38, 0)" style="text-anchor: end;"><tspan fill="rgb(133,133,133)" style="font-family: BentonSans; font-weight: 400; font-size: 12px;" x="0" y="12">40.0%</tspan></text></g><g transform="translate(0, 71.60000000000001)"><line x1="0" x2="546" y1="0" y2="0" style="fill: none; stroke-width: 1; stroke-linejoin: miter; stroke-linecap: butt; stroke: rgb(238, 238, 238);"/><text transform="translate(-4, 4) translate(-38.00000, -12.00000) translate(38, 0)" style="text-anchor: end;"><tspan fill="rgb(133,133,133)" style="font-family: BentonSans; font-weight: 400; font-size: 12px;" x="0" y="12">60.0%</tspan></text></g><g transform="translate(0, 35.79999999999998)"><line x1="0" x2="546" y1="0" y2="0" style="fill: none; stroke-width: 1; stroke-linejoin: miter; stroke-linecap: butt; stroke: rgb(238, 238, 238);"/><text transform="translate(-4, 4) translate(-38.00000, -12.00000) translate(38, 0)" style="text-anchor: end;"><tspan fill="rgb(133,133,133)" style="font-family: BentonSans; font-weight: 400; font-size: 12px;" x="0" y="12">80.0%</tspan></text></g><g transform="translate(0, 0)"><line x1="0" x2="546" y1="0" y2="0" style="fill: none; stroke-width: 1; stroke-linejoin: miter; stroke-linecap: butt; stroke: rgb(238, 238, 238);"/><text transform="translate(-4, 4) translate(-44.00000, -12.00000) translate(44, 0)" style="text-anchor: end;"><tspan fill="rgb(133,133,133)" style="font-family: BentonSans; font-weight: 400; font-size: 12px;" x="0" y="12">100.0%</tspan></text></g></g><g id="lines-svg"><g id="turnout-svg"><path d="M9.646643109420948,40.81199999999998L40.62939097890084,30.071999999999974L71.61213884838072,36.873999999999995L102.5948867178606,42.423L133.5776345873405,46.53999999999999L164.56038245682038,53.16300000000001L195.54313032630026,48.33000000000001L226.52587819578017,49.941L257.50862606526005,52.088999999999984L288.49137393473995,55.84800000000001L319.47412180421986,46.718999999999994L350.4568696736997,59.786000000000016L381.4396175431796,53.521L412.42236541265953,37.94800000000001L443.4051132821394,39.20100000000002L474.3878611516193,42.244L505.3706090210992,45.287000000000006L536.3533568905791,35.978999999999985" stroke="rgb(86,77,116)" id="turnout" style="mix-blend-mode: normal; fill: none; stroke-width: 2; stroke-linejoin: round; stroke-linecap: round; stroke: rgb(86, 77, 116);"/></g></g><g id="line-symbols-svg"><path d="M -1,0 a 1,1 0 1,0 2,0 a 1,1 0 1,0 -2,0 Z" id="turnout" transform="translate(9.646643109420948, 40.81199999999998) scale(3.5)" style="mix-blend-mode: normal; fill: rgb(86, 77, 116);"/><path d="M -1,0 a 1,1 0 1,0 2,0 a 1,1 0 1,0 -2,0 Z" id="turnout" transform="translate(40.62939097890084, 30.071999999999974) scale(3.5)" style="mix-blend-mode: normal; fill: rgb(86, 77, 116);"/><path d="M -1,0 a 1,1 0 1,0 2,0 a 1,1 0 1,0 -2,0 Z" id="turnout" transform="translate(71.61213884838072, 36.873999999999995) scale(3.5)" style="mix-blend-mode: normal; fill: rgb(86, 77, 116);"/><path d="M -1,0 a 1,1 0 1,0 2,0 a 1,1 0 1,0 -2,0 Z" id="turnout" transform="translate(102.5948867178606, 42.423) scale(3.5)" style="mix-blend-mode: normal; fill: rgb(86, 77, 116);"/><path d="M -1,0 a 1,1 0 1,0 2,0 a 1,1 0 1,0 -2,0 Z" id="turnout" transform="translate(133.5776345873405, 46.53999999999999) scale(3.5)" style="mix-blend-mode: normal; fill: rgb(86, 77, 116);"/><path d="M -1,0 a 1,1 0 1,0 2,0 a 1,1 0 1,0 -2,0 Z" id="turnout" transform="translate(164.56038245682038, 53.16300000000001) scale(3.5)" style="mix-blend-mode: normal; fill: rgb(86, 77, 116);"/><path d="M -1,0 a 1,1 0 1,0 2,0 a 1,1 0 1,0 -2,0 Z" id="turnout" transform="translate(195.54313032630026, 48.33000000000001) scale(3.5)" style="mix-blend-mode: normal; fill: rgb(86, 77, 116);"/><path d="M -1,0 a 1,1 0 1,0 2,0 a 1,1 0 1,0 -2,0 Z" id="turnout" transform="translate(226.52587819578017, 49.941) scale(3.5)" style="mix-blend-mode: normal; fill: rgb(86, 77, 116);"/><path d="M -1,0 a 1,1 0 1,0 2,0 a 1,1 0 1,0 -2,0 Z" id="turnout" transform="translate(257.50862606526005, 52.088999999999984) scale(3.5)" style="mix-blend-mode: normal; fill: rgb(86, 77, 116);"/><path d="M -1,0 a 1,1 0 1,0 2,0 a 1,1 0 1,0 -2,0 Z" id="turnout" transform="translate(288.49137393473995, 55.84800000000001) scale(3.5)" style="mix-blend-mode: normal; fill: rgb(86, 77, 116);"/><path d="M -1,0 a 1,1 0 1,0 2,0 a 1,1 0 1,0 -2,0 Z" id="turnout" transform="translate(319.47412180421986, 46.718999999999994) scale(3.5)" style="mix-blend-mode: normal; fill: rgb(86, 77, 116);"/><path d="M -1,0 a 1,1 0 1,0 2,0 a 1,1 0 1,0 -2,0 Z" id="turnout" transform="translate(350.4568696736997, 59.786000000000016) scale(3.5)" style="mix-blend-mode: normal; fill: rgb(86, 77, 116);"/><path d="M -1,0 a 1,1 0 1,0 2,0 a 1,1 0 1,0 -2,0 Z" id="turnout" transform="translate(381.4396175431796, 53.521) scale(3.5)" style="mix-blend-mode: normal; fill: rgb(86, 77, 116);"/><path d="M -1,0 a 1,1 0 1,0 2,0 a 1,1 0 1,0 -2,0 Z" id="turnout" transform="translate(412.42236541265953, 37.94800000000001) scale(3.5)" style="mix-blend-mode: normal; fill: rgb(86, 77, 116);"/><path d="M -1,0 a 1,1 0 1,0 2,0 a 1,1 0 1,0 -2,0 Z" id="turnout" transform="translate(443.4051132821394, 39.20100000000002) scale(3.5)" style="mix-blend-mode: normal; fill: rgb(86, 77, 116);"/><path d="M -1,0 a 1,1 0 1,0 2,0 a 1,1 0 1,0 -2,0 Z" id="turnout" transform="translate(474.3878611516193, 42.244) scale(3.5)" style="mix-blend-mode: normal; fill: rgb(86, 77, 116);"/><path d="M -1,0 a 1,1 0 1,0 2,0 a 1,1 0 1,0 -2,0 Z" id="turnout" transform="translate(505.3706090210992, 45.287000000000006) scale(3.5)" style="mix-blend-mode: normal; fill: rgb(86, 77, 116);"/><path d="M -1,0 a 1,1 0 1,0 2,0 a 1,1 0 1,0 -2,0 Z" id="turnout" transform="translate(536.3533568905791, 35.978999999999985) scale(3.5)" style="mix-blend-mode: normal; fill: rgb(86, 77, 116);"/></g></g></g><g id="turnout-svg" clip-path="url(#rect-mask-turnout-pK38CDfqcMqqTGOiv1mX4)" transform="translate(0.00000, 120.00000)"><clipPath id="rect-mask-turnout-pK38CDfqcMqqTGOiv1mX4"><rect x="0" y="0" width="16" height="20"/></clipPath><path d="M1,10 L15,10" stroke="rgb(86,77,116)" id="turnout" style="mix-blend-mode: normal; fill: none; stroke-width: 2; stroke-linejoin: round; stroke-linecap: round; stroke: rgb(86, 77, 116);"/></g><text transform="translate(20, 123.609375)" id="turnout"><tspan fill="rgb(51,51,51)" x="0" y="12" style="font-family: BentonSans; font-weight: 400; font-size: 12px;">Voter turnout</tspan></text><g id="svelte-1chy5y9-svg" transform="translate(90.00000, 184.00000)"><g id="callout-line-svg"><path d="M 0,121 L 0,16" stroke="rgb(51,51,51)" style="mix-blend-mode: normal; fill: none; stroke-width: 1; stroke-linejoin: miter; stroke-linecap: butt; stroke: rgb(51, 51, 51);"/><path d="M-4.75,-3.75 L 0,0 L -4.75,3.75" stroke="rgb(51,51,51)" transform="translate(0, 16) rotate(-90.00000250447815) scale(1)" style="mix-blend-mode: normal; fill: none; stroke-width: 1; stroke-linejoin: miter; stroke-linecap: butt; stroke: rgb(51, 51, 51);"/></g></g><g id="svelte-1chy5y9-svg" transform="translate(121.00000, 190.00000)"><g id="callout-line-svg"><path d="M 115.99999999999997,116 L 11.31370849898476,11.313708498984761" stroke="rgb(51,51,51)" style="mix-blend-mode: normal; fill: none; stroke-width: 1; stroke-linejoin: miter; stroke-linecap: butt; stroke: rgb(51, 51, 51);"/><path d="M-4.75,-3.75 L 0,0 L -4.75,3.75" stroke="rgb(51,51,51)" transform="translate(11.313708305358887, 11.313708305358887) rotate(-135) scale(1)" style="mix-blend-mode: normal; fill: none; stroke-width: 1; stroke-linejoin: miter; stroke-linecap: butt; stroke: rgb(51, 51, 51);"/></g></g><g id="svelte-1chy5y9-svg" transform="translate(585.00000, 191.00000)"><g id="callout-line-svg"><path d="M -43.52851711026616,108 L -5.981144844500286,14.840010321731844" stroke="rgb(51,51,51)" style="mix-blend-mode: normal; fill: none; stroke-width: 1; stroke-linejoin: miter; stroke-linecap: butt; stroke: rgb(51, 51, 51);"/><path d="M-4.75,-3.75 L 0,0 L -4.75,3.75" stroke="rgb(51,51,51)" transform="translate(-5.981144905090332, 14.840010643005371) rotate(-68.04850377709244) scale(1)" style="mix-blend-mode: normal; fill: none; stroke-width: 1; stroke-linejoin: miter; stroke-linecap: butt; stroke: rgb(51, 51, 51);"/></g></g><text transform="translate(73, 322)"><tspan fill="rgb(51,51,51)" x="0" y="-2" style="font-family: BentonSans; font-weight: 400; font-size: 11px;">​ ​</tspan><tspan fill="rgb(51,51,51)" x="0" y="11" style="font-family: BentonSans; font-weight: 400; font-size: 11px;">83% turnout for ​</tspan><tspan fill="rgb(51,51,51)" x="0" y="24" style="font-family: BentonSans; font-weight: 400; font-size: 11px;">Eisenhower's ​</tspan><tspan fill="rgb(51,51,51)" x="0" y="37" style="font-family: BentonSans; font-weight: 400; font-size: 11px;">reelection</tspan></text><text transform="translate(220, 323)"><tspan fill="rgb(51,51,51)" x="0" y="-2" style="font-family: BentonSans; font-weight: 400; font-size: 11px;">​ ​</tspan><tspan fill="rgb(51,51,51)" x="0" y="11" style="font-family: BentonSans; font-weight: 400; font-size: 11px;">79.4% turnout for ​</tspan><tspan fill="rgb(51,51,51)" x="0" y="24" style="font-family: BentonSans; font-weight: 400; font-size: 11px;">Kennedy's election</tspan></text><text transform="translate(493, 316)"><tspan fill="rgb(51,51,51)" x="0" y="-2" style="font-family: BentonSans; font-weight: 400; font-size: 11px;">​ ​</tspan><tspan fill="rgb(51,51,51)" x="0" y="11" style="font-family: BentonSans; font-weight: 400; font-size: 11px;">79.9% turnout ​</tspan><tspan fill="rgb(51,51,51)" x="0" y="24" style="font-family: BentonSans; font-weight: 400; font-size: 11px;">this year</tspan></text></g><g id="after-body-svg"/><g id="above-footer-svg"/><g id="footer-svg"><g id="footer-inner-svg"><g id="footer-main-svg"><text transform="translate(0, 382)"><tspan fill="rgb(136,136,136)" x="0" y="11" style="font-family: BentonSans; font-weight: 400; font-size: 11px;">Chart:</tspan><tspan fill="rgb(136,136,136)" y="11" style="font-family: BentonSans; font-weight: 400; font-size: 11px;">​ ​</tspan><tspan fill="rgb(136,136,136)" y="11" style="font-family: BentonSans; font-weight: 400; font-size: 11px;">Jeff Hargarten, Star Tribune</tspan><tspan fill="rgb(136,136,136)" y="11" style="font-family: BentonSans; font-weight: 400; font-size: 11px;">​ •</tspan><tspan fill="rgb(136,136,136)" y="11" style="font-family: BentonSans; font-weight: 400; font-size: 11px;">​ ​</tspan><tspan fill="rgb(136,136,136)" y="11" style="font-family: BentonSans; font-weight: 400; font-size: 11px;">Source</tspan><tspan fill="rgb(136,136,136)" y="11" style="font-family: BentonSans; font-weight: 400; font-size: 11px;">:</tspan><tspan fill="rgb(136,136,136)" y="11" style="font-family: BentonSans; font-weight: 400; font-size: 11px;">​ ​</tspan><tspan fill="rgb(136,136,136)" y="11" style="font-family: BentonSans; font-weight: 400; font-size: 11px;">Minnesota Secretary of State</tspan></text></g></g></g><g id="below-footer-svg"/></g></svg>